<svg width="130" height="32" viewBox="0 0 130 32" fill="none" xmlns="http://www.w3.org/2000/svg">
<path d="M1.54728 9.23581C3.90279 4.32198 8.55064 1.06941 13.7738 0.679663C13.9243 0.668444 17.6523 0.657646 22.0583 0.65571L30.0693 0.652161V1.13569V1.61924L21.9275 1.6276C13.1347 1.63663 13.7152 1.62827 12.8579 1.75841C10.826 2.06689 8.88644 2.83817 7.18426 4.01457C4.0322 6.19303 1.82778 9.64727 1.15636 13.4601C0.968444 14.5272 0.927768 15.1149 0.927768 16.7633V18.0769H0.463886H0L0.000209083 16.7551C0.000328028 16.0282 0.0109197 15.277 0.0237657 15.0859C0.163145 13.0115 0.669681 11.0666 1.54728 9.23581Z" fill="#222222"/>
<path d="M9.14698 3.95364C10.673 3.1741 12.2343 2.73912 13.988 2.60499C14.0469 2.60049 14.2637 2.59486 14.4697 2.59248L14.8444 2.58813V3.06833V3.54853L14.3627 3.56399C11.1276 3.66795 7.96787 5.23883 5.79059 7.82575C4.26027 9.64397 3.2486 11.8961 2.91415 14.229C2.79492 15.0608 2.74877 16.253 2.80574 17.0295C3.00357 19.7251 3.94543 22.1402 5.61512 24.2332C5.93233 24.6309 6.7072 25.4394 7.08812 25.7703C8.68936 27.1609 10.5418 28.0857 12.5311 28.4878C13.2836 28.6399 13.8642 28.701 14.666 28.7126C15.3347 28.7222 15.7125 28.7023 16.3104 28.6259C18.148 28.391 19.8975 27.7187 21.4545 26.6489C24.4192 24.612 26.384 21.318 26.81 17.6704C26.8846 17.0309 26.9052 16.5258 26.9053 15.3278L26.9054 14.2046H27.3719H27.8383L27.8265 15.6133C27.8124 17.2939 27.7723 17.7987 27.5711 18.8362C27.1414 21.0517 26.2077 23.0642 24.774 24.8655C24.4495 25.2732 23.6072 26.1534 23.2194 26.49C21.8959 27.639 20.4775 28.4677 18.9096 29.0079C16.5412 29.824 14.0098 29.9094 11.5616 29.2559C11.0871 29.1292 10.25 28.8302 9.76419 28.6139C6.00063 26.9377 3.19736 23.5067 2.22579 19.3875C1.94202 18.1843 1.84077 17.2042 1.86245 15.8706C1.87955 14.8199 1.96501 14.0624 2.17507 13.1001C2.6321 11.0064 3.57494 9.04997 4.94421 7.35389C5.26605 6.95521 6.04106 6.14661 6.42313 5.81077C7.2909 5.04805 8.14624 4.46489 9.14698 3.95364Z" fill="#222222"/>
<path d="M14.8445 5.48451V5.00051V4.51654L15.3024 4.53158C17.7085 4.61059 20.0929 5.5754 22.0048 7.24358C22.5022 7.67758 23.1897 8.41913 23.5913 8.95474C25.0674 10.9234 25.8677 13.2032 25.968 15.7249L25.9845 16.1406H25.5208H25.057L25.0406 15.762C24.9956 14.7255 24.8271 13.7393 24.5393 12.8269C23.6219 9.91865 21.5266 7.53682 18.8291 6.33557C17.7153 5.83954 16.4404 5.53931 15.2786 5.4994L14.8445 5.48451Z" fill="#222222"/>
<path d="M6.51782 11.8525C7.94607 8.83154 10.8118 6.78009 14.0117 6.48785C14.3446 6.45741 15.3145 6.4566 15.6293 6.48647C17.3923 6.65364 18.9735 7.28167 20.379 8.37299C22.2547 9.82943 23.5465 11.9927 23.9652 14.3784C24.0746 15.0023 24.1072 15.4058 24.1075 16.1408C24.1078 17.054 24.0377 17.6655 23.837 18.4988C23.1721 21.2606 21.3664 23.5797 18.9004 24.8391C17.7486 25.4273 16.5313 25.7468 15.1952 25.8114L14.8443 25.8284V25.3442V24.8601L15.1595 24.8432C17.343 24.7256 19.2193 23.8644 20.733 22.285C21.5842 21.3969 22.1856 20.4414 22.62 19.2873C23.0062 18.2607 23.1792 17.2896 23.1803 16.1408C23.181 15.3781 23.1214 14.8164 22.9684 14.1426C22.6635 12.7995 21.9995 11.4495 21.1432 10.4318C19.7653 8.79416 17.967 7.7865 15.8911 7.489C15.5118 7.43463 14.5715 7.41448 14.1488 7.45167C12.23 7.62047 10.448 8.46497 9.04766 9.86916C8.08607 10.8334 7.33414 12.0751 6.9109 13.398C6.66332 14.1717 6.49474 15.1843 6.49446 15.8988L6.49441 16.1408H6.03051H5.56665L5.56688 15.8739C5.56761 15.0447 5.7525 13.943 6.03868 13.0618C6.19813 12.5709 6.3015 12.3101 6.51782 11.8525Z" fill="#222222"/>
<path d="M26.9055 11.3007V10.8167V10.3327H27.3694H27.8333V10.8167V11.3007H27.3694H26.9055Z" fill="#222222"/>
<path d="M10.9907 12.5956C10.9907 11.9016 10.9986 11.3256 11.0082 11.3155C11.0179 11.3055 12.1767 11.3019 13.5834 11.3075C16.3554 11.3187 16.3466 11.3183 16.9236 11.4612C18.5232 11.8571 19.4033 12.9978 19.2693 14.5015C19.2391 14.8395 19.2027 15.0152 19.1046 15.2956C18.8702 15.9657 18.3743 16.5021 17.6342 16.886C17.4984 16.9564 17.4166 17.0116 17.4375 17.0188C18.1634 17.2689 18.3901 17.3722 18.7434 17.6137C19.3626 18.0371 19.733 18.5869 19.8663 19.2809C19.9156 19.5376 19.9088 20.1926 19.8541 20.4599C19.5766 21.8158 18.5314 22.6849 16.8309 22.9738C16.5309 23.0249 16.4385 23.0267 13.7561 23.0351L10.9907 23.0437V22.6471V22.2505L13.6848 22.2403C16.5647 22.2294 16.5699 22.2292 17.0839 22.1015C18.3299 21.7921 19.0552 20.955 19.0552 19.8264C19.0552 18.7268 18.3567 17.9692 17.0738 17.677C16.4984 17.546 16.535 17.5477 14.1011 17.5377L11.8233 17.5282V18.448V19.3677H11.4068H10.9902L10.9964 18.046L11.0026 16.7243L13.5837 16.7103C16.0936 16.6968 16.1711 16.695 16.3932 16.6442C16.5189 16.6154 16.7193 16.5578 16.8386 16.5161C17.6466 16.2336 18.1892 15.6562 18.3691 14.8875C18.4422 14.575 18.4424 14.0315 18.3694 13.751C18.1369 12.8565 17.3561 12.2883 16.1638 12.1458C16.0342 12.1302 15.1425 12.1202 13.887 12.1201L11.8233 12.1199V12.9886V13.8574H11.407H10.9907V12.5956Z" fill="#222222"/>
<path d="M26.9055 13.2368V12.7527V12.2687H27.3694H27.8333V12.7527V13.2368H27.3694H26.9055Z" fill="#222222"/>
<path d="M28.761 15.1726V14.6885V14.2045H29.2248H29.6888V14.6885V15.1726H29.2248H28.761Z" fill="#222222"/>
<path d="M10.9907 15.7437V15.2845V14.8253H11.407H11.8233V15.2845V15.7437H11.407H10.9907Z" fill="#222222"/>
<path d="M28.498 18.927C28.6436 18.1616 28.7561 17.0415 28.7599 16.3205L28.7609 16.1405H29.2284H29.696L29.6796 16.6059C29.6343 17.8966 29.4698 19.0489 29.1644 20.2144C27.6036 26.1716 22.7501 30.63 16.9021 31.4785C15.9128 31.622 16.4419 31.6134 8.07039 31.6223L0.380615 31.6304V31.1458V30.6612L7.79683 30.661C14.976 30.6609 15.5755 30.6556 16.236 30.5855C20.1048 30.1756 23.6098 28.1036 25.975 24.8281C26.511 24.0859 26.8997 23.4232 27.3219 22.5321C27.8821 21.3496 28.2542 20.2089 28.498 18.927Z" fill="#222222"/>
<path d="M5.59058 17.804V17.32V16.836H6.05448H6.51834V17.32V17.804H6.05448H5.59058Z" fill="#222222"/>
<path d="M7.37476 17.804V17.32V16.836H7.83866H8.30257V17.32V17.804H7.83866H7.37476Z" fill="#222222"/>
<path d="M9.2063 17.804V17.32V16.836H9.6702H10.1341V17.32V17.804H9.6702H9.2063Z" fill="#222222"/>
<path d="M0 20.0129V19.5289V19.0449H0.458077H0.916179V19.5289V20.0129H0.458077H0Z" fill="#222222"/>
<path d="M11.0024 21.2665L10.996 20.8012L10.9895 20.3358H11.4063H11.8232V20.8079V21.2801L11.4128 21.2733L11.0024 21.2665Z" fill="#222222"/>
<path d="M0 21.9488V21.4648V20.9808H0.458077H0.916179V21.4648V21.9488H0.458077H0Z" fill="#222222"/>
<path d="M0 23.9595V23.4755V22.9915H0.458077H0.916179V23.4755V23.9595H0.458077H0Z" fill="#222222"/>
<path fill-rule="evenodd" clip-rule="evenodd" d="M61.1908 4.36277C59.9337 4.54363 58.8293 5.14443 58.0858 6.05216C57.1457 7.19948 56.684 8.57666 56.6835 10.2352C56.6835 10.8947 56.7345 11.3964 56.8543 11.9094C57.3174 13.8905 58.5319 15.3372 60.2136 15.9109C60.9063 16.1471 61.7536 16.2466 62.5251 16.1822C63.3298 16.115 63.909 15.9578 64.5479 15.6335C66.0548 14.868 67.049 13.4249 67.3739 11.5304C67.4566 11.0487 67.4873 9.98195 67.4341 9.44744C67.1798 6.90126 65.6513 4.98742 63.4514 4.46101C62.8322 4.31284 61.838 4.26963 61.1908 4.36277ZM93.5623 4.33205C93.5191 4.33977 93.3773 4.36188 93.247 4.38116C91.7387 4.6051 90.4476 5.5166 89.6622 6.91121C89.0274 8.03924 88.7387 9.49468 88.8668 10.9207C89.0839 13.3341 90.3998 15.2201 92.3386 15.8953C93.5122 16.3042 94.9122 16.3046 96.1042 15.8963C97.8534 15.2973 99.1143 13.7464 99.5026 11.7165C99.7986 10.1694 99.6173 8.53483 99.0092 7.26572C98.5061 6.21594 97.7433 5.40861 96.7775 4.90309C96.2759 4.64046 95.9054 4.51318 95.2803 4.38874C95.0393 4.34085 93.7518 4.29837 93.5623 4.33205ZM37.9917 10.2304V15.9502L41.0413 15.9373C43.9928 15.9249 44.1021 15.9222 44.4376 15.8545C45.4648 15.6472 46.2772 15.1383 46.7367 14.4148C47.41 13.3544 47.4201 11.7648 46.7605 10.7492C46.5246 10.3857 46.0509 9.96237 45.7192 9.81879C45.6644 9.7951 45.6197 9.76633 45.6197 9.75499C45.6197 9.7436 45.6942 9.691 45.7852 9.63807C46.0335 9.49372 46.4356 9.05441 46.5719 8.77849C46.7908 8.33511 46.8707 7.83081 46.8161 7.23274C46.756 6.56523 46.5471 6.06178 46.1427 5.60787C45.7798 5.20049 45.3071 4.89883 44.7676 4.73043C44.1031 4.523 43.8768 4.51071 40.7261 4.51068L37.9917 4.51064V10.2304ZM48.5194 10.2286V15.9466H52.3809H56.2429L56.2346 14.6036L56.2264 13.2606L53.8543 13.2522L51.4827 13.2437V8.87718V4.51064H50.001H48.5194V10.2286ZM67.3372 4.52406C67.3372 4.53147 68.0817 5.75682 68.9914 7.247C69.9039 8.74159 70.636 9.97324 70.6245 9.99372C70.6126 10.0142 69.7983 11.362 68.8152 12.989L67.0274 15.9471L68.7284 15.9386L70.4299 15.9301L71.3883 14.1863C71.9152 13.2271 72.3595 12.4292 72.3747 12.413C72.3912 12.3958 72.7933 13.122 73.3455 14.165L74.2873 15.9463L76.0452 15.9464L77.8027 15.9466L77.7284 15.823C77.52 15.4772 74.4801 10.4218 74.3428 10.193L74.1836 9.92672L75.8034 7.2269L77.4227 4.52712L75.8093 4.51859C74.5439 4.5119 74.1882 4.51898 74.1592 4.55154C74.1395 4.57435 73.7585 5.24037 73.3129 6.03154C72.8672 6.82272 72.4858 7.49277 72.4651 7.52048C72.4344 7.56216 72.2815 7.30649 71.5797 6.04077L70.7319 4.51064H69.0346C68.101 4.51064 67.3372 4.51667 67.3372 4.52406ZM78.6845 10.2266V15.9466H80.1817H81.6789V13.985V12.0233L82.3004 12.0323L82.9214 12.0412L83.9914 13.9939L85.0617 15.9466H86.7306C88.1434 15.9466 88.3972 15.9395 88.383 15.9007C88.3738 15.8755 87.8171 14.893 87.146 13.7173C86.475 12.5417 85.9205 11.5703 85.9145 11.5587C85.9086 11.5471 85.9499 11.5145 86.0068 11.4863C86.2069 11.3871 86.5824 11.112 86.7825 10.9184C87.6734 10.0556 88.0066 8.65808 87.6537 7.26251C87.5577 6.8836 87.4237 6.57394 87.2121 6.2414C86.6453 5.35136 85.8493 4.82768 84.7207 4.60249C84.3879 4.53612 84.2585 4.53276 81.5293 4.51994L78.6845 4.50655V10.2266ZM100.852 8.58901C100.863 12.5854 100.864 12.6737 100.929 12.9817C101.307 14.7802 102.382 15.7559 104.331 16.0678C104.82 16.1461 106.058 16.1461 106.532 16.0678C107.627 15.8868 108.372 15.5293 108.978 14.8946C109.527 14.3184 109.837 13.6427 109.968 12.7321C110.008 12.454 110.016 11.7987 110.016 8.4572V4.51064H108.535H107.054L107.046 8.4572L107.037 12.4037L106.966 12.6015C106.812 13.0298 106.543 13.313 106.144 13.4678C105.867 13.5749 105.262 13.6056 104.921 13.5298C104.324 13.3971 103.97 13.0425 103.852 12.4575C103.815 12.277 103.807 11.5669 103.807 8.37479L103.807 4.51064H102.324H100.841L100.852 8.58901ZM111.182 5.86187V7.21307H112.727H114.271V11.5798V15.9466H115.753H117.234V11.5798V7.21307H118.778H120.323V5.86187V4.51064H115.753H111.182V5.86187ZM121.553 10.2286V15.9466H125.776H130V14.5954V13.2441H127.258H124.515V12.2554V11.2667H126.832H129.149V10.0144V8.76203H126.832H124.515V7.95462V7.14717H127.211H129.905V5.82889V4.51064H125.729H121.553V10.2286ZM62.8106 6.99535C63.1383 7.11199 63.3031 7.21661 63.562 7.4719C64.1844 8.08571 64.5158 9.20986 64.458 10.5087C64.4056 11.6774 64.1073 12.492 63.5253 13.0555C63.2949 13.2786 62.9033 13.4895 62.5935 13.5572C62.3062 13.6201 61.8527 13.6196 61.5645 13.5562C60.3454 13.2881 59.611 11.9002 59.6895 10.0144C59.7505 8.55278 60.2655 7.50598 61.1321 7.08188C61.4534 6.92481 61.6824 6.88302 62.152 6.89575C62.4962 6.90504 62.6018 6.92102 62.8106 6.99535ZM94.7759 6.93289C95.1426 7.01316 95.4946 7.21723 95.7687 7.50875C96.0574 7.81587 96.2437 8.14894 96.4035 8.64314C96.5591 9.12338 96.6196 9.57743 96.6196 10.2552C96.6196 11.1265 96.5127 11.6996 96.2437 12.2712C95.8058 13.2002 95.1027 13.6425 94.1333 13.5989C93.3681 13.5645 92.8114 13.2244 92.3882 12.5328C92.0224 11.9357 91.8599 11.2335 91.8603 10.251C91.8608 9.00143 92.1688 8.06489 92.7783 7.45835C93.0702 7.16798 93.3791 7.00267 93.7854 6.91935C94.0093 6.8734 94.5367 6.88063 94.7759 6.93289ZM43.2673 7.08605C43.6924 7.17531 43.9448 7.45606 43.9732 7.87115C43.9962 8.20661 43.9409 8.37919 43.7459 8.58078C43.466 8.87024 43.4502 8.87311 42.0972 8.88656L40.9231 8.89819V7.97324V7.04829H42.0053C42.6928 7.04829 43.1531 7.06207 43.2673 7.08605ZM83.9216 7.22767C84.4256 7.33942 84.6803 7.59069 84.7693 8.06417C84.8781 8.64252 84.6537 9.1709 84.2126 9.37498C83.9473 9.49765 83.7132 9.51952 82.6639 9.51976L81.6789 9.52004V8.35009V7.18014L82.6956 7.18067C83.4479 7.1811 83.7664 7.19335 83.9216 7.22767ZM43.3319 11.1362C43.7503 11.1995 44.0912 11.4348 44.2157 11.7465C44.2985 11.9538 44.3307 12.2567 44.2929 12.4728C44.225 12.8604 44.0092 13.1407 43.6679 13.2849C43.497 13.3571 43.4556 13.3595 42.2076 13.3693L40.9231 13.3794V12.2626C40.9231 11.6485 40.9326 11.136 40.9441 11.1239C40.9776 11.0889 43.0909 11.0998 43.3319 11.1362ZM95.3404 21.6474C94.5588 21.7633 93.9813 22.246 93.8501 22.8938C93.7046 23.6106 94.0433 24.2721 94.7391 24.6313C95.0288 24.7809 95.2624 24.8492 95.8986 24.9703C96.3236 25.0513 96.5926 25.1857 96.8097 25.4256C97.0442 25.6849 97.1066 25.8502 97.1062 26.2125C97.1057 26.5809 97.0291 26.7852 96.8101 26.9992C96.5343 27.2688 96.2208 27.3825 95.7521 27.3825C95.3758 27.3825 95.1412 27.3347 94.8654 27.2018C94.606 27.0766 94.3853 26.8784 94.237 26.6376C94.1089 26.4293 93.9901 26.3679 93.8179 26.4217C93.6991 26.459 93.6252 26.56 93.6252 26.6857C93.6252 26.7772 93.8354 27.1199 93.9974 27.2933C94.3045 27.6209 94.7726 27.8598 95.2725 27.9438C95.5713 27.9939 96.1505 27.9694 96.4094 27.8957C96.8216 27.7784 97.17 27.5428 97.3935 27.2303C97.6056 26.934 97.6661 26.7384 97.6836 26.2941C97.7079 25.6773 97.5826 25.3196 97.2163 24.9637C96.9033 24.6597 96.4865 24.4939 95.636 24.3354C95.0806 24.2318 94.7102 24.0233 94.5248 23.7099C94.4367 23.561 94.4293 23.5248 94.4293 23.2491C94.4293 22.9091 94.4715 22.7857 94.6579 22.5851C94.9461 22.2751 95.5892 22.1301 96.1083 22.258C96.4769 22.3489 96.7711 22.5537 96.9731 22.8606C97.1333 23.1042 97.3673 23.1546 97.5027 22.9747C97.5968 22.8495 97.5803 22.7332 97.4344 22.5053C97.2049 22.1459 96.7514 21.8172 96.3204 21.6981C96.0895 21.6342 95.6002 21.6089 95.3404 21.6474ZM69.4679 21.8154L69.3862 21.9167V24.7831C69.3862 27.8959 69.3797 27.7853 69.5588 27.8704C69.6712 27.924 72.9236 27.9268 73.0701 27.8734C73.1917 27.8291 73.2316 27.7576 73.2316 27.5848C73.2316 27.4819 73.2137 27.4383 73.1485 27.3849C73.0673 27.3179 73.0356 27.3166 71.5251 27.3166H69.9852V24.6284C69.9852 22.648 69.9755 21.9214 69.9484 21.8683C69.8906 21.7555 69.8222 21.7161 69.6804 21.715C69.5721 21.7142 69.5353 21.7316 69.4679 21.8154ZM78.9585 21.7881C78.9195 21.8296 78.3843 23.1155 77.7431 24.7097C76.6158 27.5107 76.5979 27.5593 76.6332 27.6839C76.6952 27.9 76.9807 27.9795 77.1165 27.8185C77.1432 27.7872 77.2827 27.4612 77.4268 27.0941L77.6889 26.4267H79.1568H80.6246L80.8908 27.1036C81.0373 27.4759 81.1796 27.8021 81.2071 27.8283C81.3852 27.9967 81.7111 27.8536 81.7106 27.6071C81.7101 27.4843 79.4198 21.8376 79.3431 21.7716C79.2458 21.6873 79.0457 21.6959 78.9585 21.7881ZM85.702 21.7823L85.6189 21.8506V24.792V27.7335L85.7006 27.8134L85.7819 27.8933L86.8853 27.9028C88.1618 27.9137 88.3876 27.889 88.7585 27.6972C89.2845 27.4254 89.603 26.9558 89.6847 26.3315C89.7843 25.5715 89.4938 24.9725 88.8718 24.6561L88.6134 24.5247L88.7828 24.4071C89.637 23.8142 89.5328 22.4428 88.5941 21.921C88.2421 21.7252 88.1507 21.714 86.9092 21.714C85.82 21.714 85.7828 21.7161 85.702 21.7823ZM88.2669 22.4088C88.6139 22.5788 88.7819 22.8514 88.7842 23.2465C88.7869 23.691 88.6061 24.0014 88.2402 24.1807L88.0622 24.2681L87.1244 24.2781L86.1867 24.2882V23.2959V22.3036L87.14 22.3137C88.0902 22.3236 88.0943 22.3239 88.2669 22.4088ZM79.7851 25.8919C79.44 25.8968 78.8759 25.8968 78.5321 25.8919L77.9069 25.8829L78.5 24.3834C78.8263 23.5587 79.109 22.8475 79.1278 22.803C79.1586 22.7306 79.2279 22.8887 79.7874 24.3025L80.413 25.8829L79.7851 25.8919ZM88.1526 24.9128C88.4229 24.965 88.5974 25.0555 88.7851 25.2413C89.0334 25.4869 89.1022 25.6694 89.1018 26.0807C89.1013 26.3667 89.0903 26.4348 89.0187 26.5955C88.8503 26.9733 88.5271 27.2182 88.1081 27.2856C87.9961 27.3036 87.5215 27.3143 87.0533 27.3092L86.2023 27.3001L86.1941 26.1303C86.1895 25.4869 86.1927 24.9419 86.2009 24.9191C86.2202 24.866 87.8827 24.8606 88.1526 24.9128Z" fill="#222222"/>
</svg>
