<svg width="130" height="32" viewBox="0 0 219 50" fill="none" xmlns="http://www.w3.org/2000/svg">
<path d="M2.60085 13.8372C6.56027 5.91588 14.3729 0.672624 23.1526 0.0443348C23.4055 0.0262488 29.672 0.00884281 37.0782 0.00572181L50.5439 0V0.779461V1.55896L36.8582 1.57244C22.0783 1.58701 23.0541 1.57352 21.6131 1.78331C18.1976 2.2806 14.9374 3.52393 12.0761 5.42032C6.7778 8.93208 3.07234 14.5004 1.94374 20.6468C1.62787 22.367 1.5595 23.3145 1.5595 25.9718V28.0893H0.779755H0L0.00035145 25.9586C0.000551387 24.7867 0.0183551 23.5758 0.0399482 23.2677C0.274233 19.9238 1.12568 16.7884 2.60085 13.8372Z" fill="url(#paint0_linear_29_5)"/>
<path d="M15.3752 5.32203C17.9402 4.06538 20.5646 3.36418 23.5126 3.14795C23.6115 3.14071 23.976 3.13163 24.3223 3.12779L24.9521 3.12079V3.89488V4.66898L24.1424 4.69391C18.7044 4.86148 13.3932 7.39381 9.73337 11.564C7.16103 14.4951 5.4605 18.1256 4.89831 21.8863C4.6979 23.2272 4.62032 25.1491 4.71609 26.4008C5.04862 30.7462 6.63181 34.6394 9.43841 38.0134C9.97162 38.6545 11.2741 39.9579 11.9144 40.4912C14.606 42.733 17.7197 44.2239 21.0636 44.872C22.3285 45.1172 23.3045 45.2157 24.6522 45.2344C25.7763 45.2499 26.4112 45.2178 27.4163 45.0946C30.5052 44.716 33.4459 43.6321 36.0631 41.9077C41.0465 38.624 44.3491 33.3141 45.0652 27.4339C45.1907 26.403 45.2253 25.5889 45.2255 23.6577L45.2257 21.847H46.0097H46.7937L46.7738 24.1178C46.7501 26.827 46.6829 27.6408 46.3446 29.3132C45.6223 32.8848 44.0529 36.129 41.6429 39.0327C41.0974 39.6899 39.6815 41.1089 39.0298 41.6514C36.805 43.5037 34.4208 44.8396 31.7853 45.7105C27.8042 47.026 23.5492 47.1637 19.4339 46.1102C18.6364 45.906 17.2292 45.424 16.4127 45.0753C10.0864 42.3731 5.37436 36.8423 3.74124 30.202C3.26424 28.2625 3.09405 26.6825 3.13048 24.5327C3.15923 22.8388 3.30289 21.6177 3.65598 20.0664C4.42421 16.6913 6.00904 13.5375 8.31067 10.8034C8.85166 10.1607 10.1544 8.85718 10.7966 8.31579C12.2553 7.08626 13.693 6.14619 15.3752 5.32203Z" fill="url(#paint1_linear_29_5)"/>
<path d="M24.9521 7.7899V7.00967V6.22949L25.7219 6.25373C29.7663 6.3811 33.7743 7.93641 36.988 10.6256C37.8241 11.3252 38.9797 12.5206 39.6548 13.384C42.136 16.5576 43.4813 20.2327 43.6499 24.2977L43.6776 24.9679H42.8981H42.1185L42.0909 24.3577C42.0153 22.6868 41.7322 21.0969 41.2483 19.6261C39.7063 14.9379 36.1843 11.0983 31.65 9.16183C29.7778 8.36222 27.6348 7.87824 25.6819 7.81389L24.9521 7.7899Z" fill="url(#paint2_linear_29_5)"/>
<path d="M10.9559 18.0554C13.3567 13.1855 18.1736 9.87852 23.5525 9.40743C24.1121 9.35836 25.7423 9.35705 26.2716 9.40519C29.235 9.67469 31.8929 10.6871 34.2553 12.4463C37.4083 14.7942 39.5797 18.2814 40.2835 22.1273C40.4675 23.133 40.5222 23.7834 40.5226 24.9683C40.5232 26.4404 40.4053 27.4261 40.068 28.7696C38.9504 33.2216 35.9151 36.9602 31.7699 38.9904C29.8339 39.9386 27.7877 40.4535 25.5419 40.5577L24.9521 40.5851V39.8046V39.0242L25.4819 38.9969C29.152 38.8074 32.3061 37.4191 34.8504 34.8731C36.2812 33.4413 37.2922 31.9011 38.0223 30.0405C38.6716 28.3858 38.9623 26.8202 38.9641 24.9683C38.9653 23.7389 38.8651 22.8334 38.608 21.7472C38.0955 19.5821 36.9793 17.4058 35.54 15.7652C33.2238 13.1253 30.201 11.5009 26.7115 11.0213C26.074 10.9337 24.4934 10.9012 23.7829 10.9611C20.5576 11.2333 17.5622 12.5946 15.2083 14.8582C13.592 16.4125 12.3281 18.4143 11.6166 20.5469C11.2005 21.7941 10.9171 23.4264 10.9166 24.5782L10.9165 24.9683H10.1368H9.35706L9.35744 24.5381C9.35868 23.2015 9.66945 21.4253 10.1505 20.0049C10.4185 19.2136 10.5923 18.7931 10.9559 18.0554Z" fill="url(#paint3_linear_29_5)"/>
<path d="M45.2256 17.1659V16.3857V15.6054H46.0053H46.7851V16.3857V17.1659H46.0053H45.2256Z" fill="url(#paint4_linear_29_5)"/>
<path d="M18.4742 19.2533C18.4742 18.1346 18.4874 17.2061 18.5036 17.1898C18.5198 17.1736 20.4677 17.1678 22.8322 17.1769C27.4918 17.1949 27.477 17.1942 28.447 17.4246C31.1357 18.0628 32.6151 19.9017 32.3898 22.3256C32.3391 22.8706 32.2778 23.1538 32.113 23.6057C31.719 24.686 30.8854 25.5508 29.6414 26.1695C29.4131 26.283 29.2757 26.3721 29.3107 26.3836C30.5309 26.7868 30.9119 26.9533 31.5058 27.3426C32.5467 28.0251 33.1693 28.9116 33.3933 30.0302C33.4762 30.4441 33.4648 31.5 33.3729 31.9309C32.9064 34.1165 31.1495 35.5175 28.291 35.9834C27.7868 36.0656 27.6315 36.0686 23.1226 36.0821L18.4742 36.096V35.4566V34.8173L23.0027 34.8009C27.8436 34.7834 27.8523 34.7831 28.7163 34.5772C30.8108 34.0783 32.0299 32.729 32.0299 30.9097C32.0299 29.1371 30.8558 27.9157 28.6993 27.4447C27.7322 27.2335 27.7937 27.2363 23.7025 27.2201L19.8737 27.2049V28.6876V30.1702H19.1736H18.4734L18.4838 28.0396L18.4941 25.9088L22.8328 25.8864C27.0516 25.8646 27.182 25.8616 27.5553 25.7798C27.7665 25.7334 28.1035 25.6405 28.304 25.5732C29.6621 25.1179 30.5742 24.1871 30.8767 22.9479C30.9996 22.4442 30.9998 21.5681 30.8772 21.1158C30.4863 19.6738 29.1739 18.7578 27.1698 18.5281C26.9518 18.5031 25.453 18.4869 23.3426 18.4867L19.8737 18.4864V19.8868V21.2873H19.1739H18.4742V19.2533Z" fill="url(#paint5_linear_29_5)"/>
<path d="M45.2256 20.2868V19.5065V18.7262H46.0053H46.7851V19.5065V20.2868H46.0053H45.2256Z" fill="url(#paint6_linear_29_5)"/>
<path d="M48.3445 23.4075V22.6272V21.847H49.1242H49.904V22.6272V23.4075H49.1242H48.3445Z" fill="url(#paint7_linear_29_5)"/>
<path d="M18.4741 24.3281V23.5878V22.8476H19.1739H19.8737V23.5878V24.3281H19.1739H18.4741Z" fill="url(#paint8_linear_29_5)"/>
<path d="M47.9029 29.4596C48.1476 28.2258 48.3368 26.4201 48.3431 25.2579L48.3447 24.9677H49.1306H49.9166L49.8891 25.718C49.8129 27.7985 49.5364 29.6561 49.0231 31.5351C46.3995 41.1381 38.2411 48.3252 28.4111 49.6931C26.7481 49.9245 27.6375 49.9106 13.5658 49.9249L0.639893 49.938V49.1568V48.3755L13.1059 48.3753C25.1736 48.3752 26.1812 48.3665 27.2914 48.2536C33.7947 47.5928 39.6861 44.2526 43.662 38.9724C44.5628 37.776 45.2163 36.7076 45.9259 35.2712C46.8675 33.3649 47.4931 31.5262 47.9029 29.4596Z" fill="url(#paint9_linear_29_5)"/>
<path d="M9.39697 27.6494V26.8691V26.0889H10.1768H10.9565V26.8691V27.6494H10.1768H9.39697Z" fill="url(#paint10_linear_29_5)"/>
<path d="M12.396 27.6494V26.8691V26.0889H13.1758H13.9556V26.8691V27.6494H13.1758H12.396Z" fill="url(#paint11_linear_29_5)"/>
<path d="M15.4751 27.6494V26.8691V26.0889H16.2549H17.0347V26.8691V27.6494H16.2549H15.4751Z" fill="url(#paint12_linear_29_5)"/>
<path d="M0 31.2102V30.4299V29.6497H0.769989H1.54002V30.4299V31.2102H0.769989H0Z" fill="url(#paint13_linear_29_5)"/>
<path d="M18.4939 33.2312L18.483 32.4809L18.4722 31.7307H19.1728H19.8735V32.4919V33.2531L19.1837 33.2421L18.4939 33.2312Z" fill="url(#paint14_linear_29_5)"/>
<path d="M0 34.3309V33.5507V32.7704H0.769989H1.54002V33.5507V34.3309H0.769989H0Z" fill="url(#paint15_linear_29_5)"/>
<path d="M0 37.5724V36.792V36.0118H0.769989H1.54002V36.792V37.5724H0.769989H0Z" fill="url(#paint16_linear_29_5)"/>
<path fill-rule="evenodd" clip-rule="evenodd" d="M102.857 5.98156C100.743 6.27312 98.8872 7.24163 97.6373 8.70493C96.0572 10.5544 95.281 12.7745 95.2802 15.4481C95.2802 16.5113 95.3659 17.3201 95.5673 18.147C96.3457 21.3407 98.3872 23.6727 101.214 24.5975C102.378 24.9783 103.803 25.1388 105.1 25.0349C106.452 24.9266 107.426 24.6732 108.5 24.1503C111.033 22.9164 112.704 20.59 113.25 17.536C113.389 16.7596 113.441 15.0399 113.351 14.1782C112.924 10.0737 110.354 6.98853 106.656 6.13993C105.616 5.90107 103.945 5.83142 102.857 5.98156ZM157.27 5.93205C157.198 5.94448 156.959 5.98013 156.74 6.01121C154.205 6.37221 152.035 7.84159 150.715 10.0897C149.648 11.9082 149.162 14.2544 149.378 16.5532C149.743 20.4436 151.955 23.484 155.213 24.5724C157.186 25.2316 159.539 25.2322 161.543 24.574C164.483 23.6084 166.603 21.1083 167.256 17.836C167.753 15.3421 167.448 12.7071 166.426 10.6612C165.581 8.96895 164.298 7.66749 162.675 6.85258C161.832 6.42921 161.209 6.22404 160.158 6.02342C159.753 5.94623 157.589 5.87775 157.27 5.93205ZM63.8608 15.4405V24.6609L68.987 24.6401C73.9481 24.6201 74.1318 24.6158 74.6959 24.5067C76.4224 24.1725 77.7881 23.3522 78.5604 22.1858C79.6922 20.4765 79.7092 17.9138 78.6005 16.2766C78.204 15.6907 77.4078 15.0083 76.8501 14.7769C76.758 14.7387 76.6828 14.6923 76.6828 14.674C76.6829 14.6557 76.808 14.5709 76.961 14.4855C77.3784 14.2528 78.0543 13.5447 78.2834 13.0999C78.6515 12.3851 78.7857 11.5722 78.6939 10.6081C78.5928 9.53201 78.2418 8.72044 77.5621 7.98872C76.952 7.332 76.1574 6.84572 75.2506 6.57424C74.1335 6.23986 73.7532 6.22005 68.4572 6.21999L63.8608 6.21994V15.4405ZM81.557 15.4375V24.6551H88.0479H94.5396L94.5257 22.4902L94.5118 20.3252L90.5245 20.3116L86.538 20.2979V13.259V6.21994H84.0475H81.557V15.4375ZM113.188 6.24157C113.188 6.25352 114.44 8.22882 115.969 10.6311C117.503 13.0404 118.733 15.0258 118.714 15.0589C118.694 15.0918 117.325 17.2646 115.673 19.8874L112.667 24.656L115.527 24.6423L118.387 24.6285L119.998 21.8174C120.883 20.2712 121.63 18.985 121.656 18.9589C121.684 18.9312 122.359 20.1017 123.288 21.7831L124.871 24.6546L127.826 24.6548L130.78 24.6551L130.655 24.4559C130.305 23.8984 125.195 15.749 124.964 15.3801L124.696 14.9509L127.419 10.5987L130.141 6.2465L127.429 6.23275C125.302 6.22196 124.704 6.23338 124.655 6.28587C124.622 6.32264 123.982 7.39628 123.233 8.67168C122.484 9.94709 121.842 11.0272 121.808 11.0719C121.756 11.1391 121.499 10.727 120.319 8.68657L118.894 6.21994H116.041C114.472 6.21994 113.188 6.22966 113.188 6.24157ZM132.262 15.4342V24.6551H134.779H137.295V21.4929V18.3307L138.34 18.3451L139.384 18.3595L141.182 21.5073L142.982 24.6551H145.787C148.162 24.6551 148.588 24.6437 148.564 24.5811C148.549 24.5405 147.613 22.9566 146.485 21.0614C145.357 19.1663 144.425 17.6004 144.415 17.5817C144.405 17.563 144.475 17.5104 144.57 17.4649C144.907 17.305 145.538 16.8615 145.874 16.5495C147.372 15.1586 147.932 12.9058 147.338 10.6561C147.177 10.0452 146.952 9.54605 146.596 9.00999C145.643 7.57522 144.306 6.73102 142.408 6.368C141.849 6.26101 141.631 6.25559 137.044 6.23492L132.262 6.21335V15.4342ZM169.524 12.7944C169.542 19.2367 169.545 19.3791 169.653 19.8755C170.288 22.7748 172.096 24.3478 175.371 24.8505C176.193 24.9767 178.275 24.9767 179.071 24.8506C180.912 24.5587 182.165 23.9825 183.182 22.9593C184.107 22.0304 184.627 20.9412 184.847 19.4732C184.915 19.025 184.927 17.9685 184.927 12.5819V6.21994H182.438H179.95L179.935 12.5819L179.921 18.9439L179.801 19.2627C179.541 19.9531 179.09 20.4097 178.419 20.6592C177.954 20.8319 176.936 20.8814 176.363 20.7592C175.36 20.5453 174.766 19.9736 174.567 19.0305C174.505 18.7395 174.492 17.5949 174.491 12.4491L174.49 6.21994H171.998H169.506L169.524 12.7944ZM186.888 8.39817V10.5764H189.484H192.08V17.6157V24.6551H194.571H197.06V17.6157V10.5764H199.657H202.253V8.39817V6.21994H194.571H186.888V8.39817ZM204.32 15.4375V24.6551H211.419H218.519V22.4769V20.2986H213.91H209.3V18.7048V17.111H213.194H217.089V15.0922V13.0733H213.194H209.3V11.7718V10.4701H213.83H218.36V8.34501V6.21994H211.34H204.32V15.4375ZM105.579 10.2254C106.13 10.4134 106.407 10.5821 106.842 10.9936C107.889 11.9831 108.446 13.7953 108.348 15.8891C108.26 17.773 107.759 19.0863 106.781 19.9946C106.393 20.3542 105.735 20.6941 105.214 20.8034C104.731 20.9047 103.969 20.904 103.485 20.8018C101.436 20.3695 100.201 18.1322 100.333 15.0922C100.436 12.736 101.301 11.0485 102.758 10.3649C103.298 10.1117 103.683 10.0443 104.472 10.0648C105.051 10.0798 105.228 10.1056 105.579 10.2254ZM159.31 10.1247C159.927 10.2541 160.519 10.5831 160.979 11.053C161.464 11.5481 161.778 12.085 162.046 12.8817C162.308 13.6558 162.41 14.3878 162.41 15.4804C162.41 16.885 162.23 17.8088 161.778 18.7302C161.042 20.2278 159.86 20.9408 158.23 20.8705C156.944 20.815 156.008 20.2668 155.297 19.1519C154.682 18.1894 154.409 17.0574 154.41 15.4736C154.41 13.4593 154.928 11.9495 155.953 10.9718C156.443 10.5037 156.963 10.2372 157.645 10.1029C158.022 10.0288 158.908 10.0404 159.31 10.1247ZM72.7287 10.3716C73.4432 10.5155 73.8674 10.9681 73.9153 11.6372C73.9538 12.178 73.8609 12.4562 73.5332 12.7812C73.0627 13.2478 73.0362 13.2524 70.7619 13.2741L68.7883 13.2928V11.8018V10.3107H70.6073C71.7631 10.3107 72.5367 10.3329 72.7287 10.3716ZM141.065 10.5999C141.912 10.78 142.34 11.1851 142.49 11.9484C142.673 12.8807 142.296 13.7325 141.554 14.0614C141.108 14.2592 140.715 14.2944 138.951 14.2948L137.295 14.2953V12.4093V10.5233L139.004 10.5241C140.269 10.5248 140.804 10.5446 141.065 10.5999ZM72.8372 16.9007C73.5406 17.0026 74.1135 17.3819 74.3229 17.8844C74.4621 18.2186 74.5162 18.7068 74.4526 19.0552C74.3385 19.68 73.9758 20.132 73.402 20.3644C73.1148 20.4808 73.0453 20.4846 70.9473 20.5004L68.7883 20.5167V18.7164C68.7883 17.7264 68.8042 16.9003 68.8236 16.8808C68.8799 16.8244 72.4322 16.8419 72.8372 16.9007ZM160.259 33.8451C158.945 34.0318 157.975 34.81 157.754 35.8542C157.51 37.0098 158.079 38.0761 159.249 38.6553C159.735 38.8964 160.128 39.0065 161.197 39.2017C161.912 39.3323 162.364 39.5489 162.729 39.9356C163.123 40.3536 163.228 40.62 163.227 41.2042C163.227 41.798 163.098 42.1274 162.73 42.4724C162.266 42.9069 161.739 43.0902 160.951 43.0902C160.319 43.0902 159.924 43.0131 159.461 42.799C159.025 42.5972 158.654 42.2775 158.405 41.8894C158.189 41.5537 157.989 41.4547 157.7 41.5414C157.5 41.6015 157.376 41.7643 157.376 41.9669C157.376 42.1144 157.729 42.6669 158.002 42.9464C158.518 43.4745 159.305 43.8596 160.145 43.995C160.647 44.0758 161.621 44.0363 162.056 43.9175C162.749 43.7284 163.335 43.3487 163.71 42.8448C164.067 42.3672 164.169 42.0519 164.198 41.3356C164.239 40.3414 164.028 39.7647 163.413 39.191C162.886 38.701 162.186 38.4337 160.756 38.1782C159.823 38.0112 159.2 37.675 158.888 37.1698C158.74 36.9299 158.728 36.8714 158.728 36.427C158.728 35.879 158.799 35.6801 159.112 35.3567C159.597 34.8569 160.677 34.6231 161.55 34.8293C162.17 34.9759 162.664 35.3061 163.004 35.8008C163.273 36.1935 163.666 36.2747 163.894 35.9846C164.052 35.7829 164.024 35.5953 163.779 35.228C163.393 34.6486 162.631 34.1187 161.906 33.9267C161.518 33.8238 160.696 33.783 160.259 33.8451ZM116.77 34.1158L116.632 34.2792V38.8998C116.632 43.9178 116.622 43.7396 116.922 43.8768C117.111 43.9632 122.579 43.9676 122.825 43.8815C123.029 43.8101 123.096 43.6948 123.096 43.4163C123.096 43.2504 123.066 43.1801 122.957 43.0941C122.82 42.9861 122.767 42.9839 120.228 42.9839H117.639V38.6506C117.639 35.458 117.623 34.2867 117.577 34.2011C117.48 34.0192 117.365 33.9558 117.127 33.954C116.945 33.9526 116.883 33.9807 116.77 34.1158ZM132.723 34.0718C132.657 34.1388 131.757 36.2117 130.68 38.7816C128.785 43.2969 128.755 43.3753 128.814 43.5761C128.918 43.9244 129.398 44.0526 129.626 43.793C129.671 43.7426 129.906 43.217 130.148 42.6253L130.589 41.5495H133.056H135.523L135.971 42.6407C136.217 43.2409 136.456 43.7666 136.502 43.8089C136.802 44.0804 137.349 43.8497 137.349 43.4523C137.348 43.2544 133.498 34.1517 133.369 34.0453C133.206 33.9094 132.869 33.9232 132.723 34.0718ZM144.058 34.0624L143.918 34.1725V38.9143V43.6561L144.056 43.7849L144.192 43.9137L146.047 43.9289C148.193 43.9466 148.572 43.9067 149.196 43.5975C150.08 43.1593 150.615 42.4024 150.752 41.3959C150.92 40.1709 150.432 39.2051 149.386 38.6952L148.952 38.4833L149.236 38.2937C150.672 37.338 150.497 35.1272 148.919 34.286C148.328 33.9704 148.174 33.9523 146.087 33.9523C144.256 33.9523 144.194 33.9557 144.058 34.0624ZM148.369 35.0724C148.953 35.3466 149.235 35.7859 149.239 36.4228C149.243 37.1394 148.939 37.6397 148.324 37.9289L148.025 38.0697L146.449 38.0859L144.873 38.1021V36.5025V34.9029L146.475 34.9191C148.072 34.9351 148.079 34.9356 148.369 35.0724ZM134.112 40.6873C133.532 40.6952 132.584 40.6952 132.006 40.6873L130.955 40.6729L131.952 38.2556C132.5 36.9261 132.976 35.7796 133.007 35.7079C133.059 35.5912 133.175 35.846 134.116 38.1251L135.168 40.6729L134.112 40.6873ZM148.177 39.1089C148.632 39.1932 148.925 39.3391 149.24 39.6385C149.658 40.0345 149.773 40.3287 149.773 40.9917C149.772 41.4527 149.753 41.5625 149.633 41.8215C149.35 42.4306 148.807 42.8254 148.102 42.9341C147.914 42.9631 147.116 42.9803 146.329 42.9721L144.899 42.9574L144.885 41.0716C144.877 40.0345 144.883 39.1559 144.897 39.1192C144.929 39.0335 147.723 39.0248 148.177 39.1089Z" fill="white"/>
<defs>
<linearGradient id="paint0_linear_29_5" x1="2.5" y1="14.9058" x2="49.5" y2="14.9058" gradientUnits="userSpaceOnUse">
<stop stop-color="#29418B"/>
<stop offset="1" stop-color="#3874AE"/>
</linearGradient>
<linearGradient id="paint1_linear_29_5" x1="5.28563" y1="26.3049" x2="45.8917" y2="26.3049" gradientUnits="userSpaceOnUse">
<stop stop-color="#29418B"/>
<stop offset="1" stop-color="#3874AE"/>
</linearGradient>
<linearGradient id="paint2_linear_29_5" x1="25.8783" y1="16.1731" x2="43.2909" y2="16.1731" gradientUnits="userSpaceOnUse">
<stop stop-color="#29418B"/>
<stop offset="1" stop-color="#3874AE"/>
</linearGradient>
<linearGradient id="paint3_linear_29_5" x1="10.8986" y1="25.9345" x2="39.8789" y2="25.9345" gradientUnits="userSpaceOnUse">
<stop stop-color="#29418B"/>
<stop offset="1" stop-color="#3874AE"/>
</linearGradient>
<linearGradient id="paint4_linear_29_5" x1="45.3027" y1="16.4335" x2="46.7529" y2="16.4335" gradientUnits="userSpaceOnUse">
<stop stop-color="#29418B"/>
<stop offset="1" stop-color="#3874AE"/>
</linearGradient>
<linearGradient id="paint5_linear_29_5" x1="19.2141" y1="27.2144" x2="33.1399" y2="27.2144" gradientUnits="userSpaceOnUse">
<stop stop-color="#29418B"/>
<stop offset="1" stop-color="#3874AE"/>
</linearGradient>
<linearGradient id="paint6_linear_29_5" x1="45.3027" y1="19.5543" x2="46.7529" y2="19.5543" gradientUnits="userSpaceOnUse">
<stop stop-color="#29418B"/>
<stop offset="1" stop-color="#3874AE"/>
</linearGradient>
<linearGradient id="paint7_linear_29_5" x1="48.4216" y1="22.675" x2="49.8718" y2="22.675" gradientUnits="userSpaceOnUse">
<stop stop-color="#29418B"/>
<stop offset="1" stop-color="#3874AE"/>
</linearGradient>
<linearGradient id="paint8_linear_29_5" x1="18.5433" y1="23.6332" x2="19.8448" y2="23.6332" gradientUnits="userSpaceOnUse">
<stop stop-color="#29418B"/>
<stop offset="1" stop-color="#3874AE"/>
</linearGradient>
<linearGradient id="paint9_linear_29_5" x1="3.07721" y1="38.2184" x2="48.8988" y2="38.2184" gradientUnits="userSpaceOnUse">
<stop stop-color="#29418B"/>
<stop offset="1" stop-color="#3874AE"/>
</linearGradient>
<linearGradient id="paint10_linear_29_5" x1="9.47411" y1="26.917" x2="10.9243" y2="26.917" gradientUnits="userSpaceOnUse">
<stop stop-color="#29418B"/>
<stop offset="1" stop-color="#3874AE"/>
</linearGradient>
<linearGradient id="paint11_linear_29_5" x1="12.4731" y1="26.917" x2="13.9234" y2="26.917" gradientUnits="userSpaceOnUse">
<stop stop-color="#29418B"/>
<stop offset="1" stop-color="#3874AE"/>
</linearGradient>
<linearGradient id="paint12_linear_29_5" x1="15.5522" y1="26.917" x2="17.0025" y2="26.917" gradientUnits="userSpaceOnUse">
<stop stop-color="#29418B"/>
<stop offset="1" stop-color="#3874AE"/>
</linearGradient>
<linearGradient id="paint13_linear_29_5" x1="0.0761724" y1="30.4778" x2="1.50821" y2="30.4778" gradientUnits="userSpaceOnUse">
<stop stop-color="#29418B"/>
<stop offset="1" stop-color="#3874AE"/>
</linearGradient>
<linearGradient id="paint14_linear_29_5" x1="18.5415" y1="32.5386" x2="19.8446" y2="32.5386" gradientUnits="userSpaceOnUse">
<stop stop-color="#29418B"/>
<stop offset="1" stop-color="#3874AE"/>
</linearGradient>
<linearGradient id="paint15_linear_29_5" x1="0.0761724" y1="33.5985" x2="1.50821" y2="33.5985" gradientUnits="userSpaceOnUse">
<stop stop-color="#29418B"/>
<stop offset="1" stop-color="#3874AE"/>
</linearGradient>
<linearGradient id="paint16_linear_29_5" x1="0.0761724" y1="36.8399" x2="1.50821" y2="36.8399" gradientUnits="userSpaceOnUse">
<stop stop-color="#29418B"/>
<stop offset="1" stop-color="#3874AE"/>
</linearGradient>
</defs>
</svg>
