<svg width="90" height="40" viewBox="0 0 126 54" fill="none" xmlns="http://www.w3.org/2000/svg">
<g clip-path="url(#clip0_178_4090)">
<path fill-rule="evenodd" clip-rule="evenodd" d="M95.818 20.1224C95.7146 20.5118 95.5342 20.8773 95.2868 21.1984C94.8263 21.784 94.2167 22.2406 93.5194 22.5227C92.8923 22.7875 92.228 22.9588 91.5489 23.0305C91.4093 23.0479 91.2647 23.0586 91.1244 23.069L91.1016 23.0707C90.6715 23.0867 90.258 23.2372 89.9216 23.5001C89.585 23.7632 89.3434 24.1249 89.2319 24.5321C89.1808 24.7348 89.1427 24.9403 89.1182 25.1477C89.079 25.4604 89.059 25.7806 89.0372 26.1268C89.0216 26.3752 89.0051 26.6373 88.9801 26.9196C88.8341 28.0698 88.4945 29.1883 87.9753 30.2297C87.8693 30.4485 87.7611 30.6608 87.6547 30.8692C87.0856 31.9864 86.5712 32.9955 86.7189 34.347C86.8344 35.3885 87.3788 36.0862 88.1022 36.8059C88.4457 37.1502 88.9012 37.4444 89.374 37.7498C90.6975 38.6044 92.1565 39.5467 91.6758 41.9207C91.2824 43.8443 88.0275 45.863 83.4528 46.568C83.8966 46.502 82.9191 44.8677 82.8107 44.6864L82.804 44.6754C82.6779 44.4819 82.5488 44.2912 82.4199 44.1009C82.0475 43.551 81.6767 43.0041 81.3873 42.3976C80.6231 40.8139 80.2687 38.9816 80.5819 37.2461C80.8656 35.6755 81.9254 34.4208 82.9456 33.2127C83.112 33.0158 83.2772 32.8202 83.438 32.6246C84.8025 30.9641 86.2343 28.7883 86.551 26.6329C86.5779 26.4456 86.6017 26.2414 86.6268 26.0266C86.6717 25.6419 86.7206 25.2233 86.7972 24.8062C86.9109 24.0857 87.1413 23.3876 87.4795 22.7383C87.7103 22.3125 88.0143 21.9287 88.378 21.6039C88.5677 21.4315 88.6927 21.2015 88.7334 20.9512C88.7739 20.7009 88.7276 20.4444 88.6018 20.2228L81.309 7.36994L91.7839 20.0366C91.9032 20.1833 92.054 20.3027 92.2256 20.3859C92.3971 20.469 92.5854 20.5142 92.7767 20.5183C92.9683 20.5224 93.1581 20.485 93.3333 20.409C93.5083 20.333 93.6642 20.2202 93.7898 20.0785C93.9225 19.9269 93.9977 19.7351 94.0027 19.5353C94.0079 19.3357 93.9425 19.1404 93.8177 18.9825C93.3307 18.3726 92.8238 17.7544 92.3193 17.139C92.1151 16.8902 91.9112 16.6412 91.7093 16.394L89.0733 13.1973L83.7827 6.81457L77.9082 0L84.4614 6.24284L90.093 12.3441L92.9025 15.402C93.1606 15.6869 93.4187 15.9692 93.6767 16.2513C94.3506 16.9885 95.0247 17.7256 95.6986 18.5076L95.8516 18.6902L95.8851 18.9733C95.9305 19.3573 95.9078 19.7461 95.818 20.1224ZM122.757 24.418L122.769 24.4345C122.767 23.0717 121.905 20.8231 120.162 18.6601L120.121 18.6072C119.584 17.957 119 17.3464 118.371 16.7805C118.253 16.669 118.127 16.5593 117.998 16.4498C117.193 15.7617 116.312 15.1624 115.373 14.6633L115.306 14.6303C112.355 13.0557 108.515 12.2447 103.78 13.158C103.144 12.4014 102.459 11.6858 101.729 11.0153C100.612 9.97181 99.2965 9.15331 97.8576 8.60588C96.4312 8.09439 94.9043 7.9118 93.3945 8.07245C94.8497 8.20088 96.2677 8.59744 97.5719 9.24157C98.8329 9.90322 99.9678 10.772 100.928 11.81C101.901 12.8696 102.816 13.9793 103.668 15.1346L103.882 15.4074C104.716 16.4718 105.565 17.5553 106.623 18.5196C107.206 19.0564 107.855 19.5186 108.556 19.8951C108.743 19.9882 108.931 20.0759 109.116 20.1526C109.3 20.2294 109.474 20.3006 109.659 20.3664C110.02 20.5033 110.392 20.6167 110.765 20.7208C112.256 21.1373 113.784 21.287 115.274 21.3674C115.482 21.3781 115.689 21.3881 115.896 21.398C116.428 21.4238 116.957 21.4493 117.476 21.4861C118.189 21.5276 118.896 21.6365 119.586 21.8113C120.625 22.0765 121.539 22.6826 122.176 23.5284C122.393 23.8101 122.587 24.1075 122.757 24.418ZM118.392 16.7826C118.317 16.7148 118.241 16.6476 118.165 16.5807C118.116 16.5375 118.068 16.4947 118.019 16.4519C118.056 16.4851 118.094 16.5187 118.131 16.5524C118.219 16.6316 118.306 16.7107 118.392 16.7826ZM116.528 30.2357C111.732 28.3289 106.715 26.334 107.462 20.7355C109.064 22.4107 111.577 22.762 114.311 23.1442C116.791 23.4909 119.452 23.8628 121.777 25.2712C127.266 28.5922 126.464 35.0442 124.6 37.4191C124.768 33.5121 120.733 31.9078 116.528 30.2357ZM97.2064 27.4336C98.4722 27.3148 101.17 26.67 99.964 24.5893C99.7043 24.166 99.3282 23.8232 98.879 23.5997C98.4289 23.3765 97.9249 23.282 97.4228 23.3271C96.913 23.3807 96.4331 23.5863 96.0474 23.9165C95.6616 24.2466 95.3886 24.6848 95.2658 25.172C94.8911 26.5329 95.2881 27.6162 97.2064 27.4336ZM96.8428 10.9713C96.0484 10.0725 94.8161 9.6012 93.6082 9.42957C93.563 9.72436 93.5344 10.0214 93.5225 10.3192C93.4683 12.7724 94.3575 15.4668 96.0783 17.3393C96.6283 17.9447 97.293 18.4406 98.0336 18.8007C98.4626 19.0053 99.5994 19.513 100.021 19.0564C100.053 19.0145 100.074 18.9651 100.079 18.9132C100.086 18.8612 100.077 18.8085 100.056 18.7605C99.9871 18.565 99.8514 18.3875 99.7177 18.2113C99.6225 18.0864 99.5283 17.9622 99.458 17.8324C99.3869 17.7019 99.3109 17.5743 99.2339 17.447C99.0916 17.2077 98.9483 16.9689 98.8386 16.709C98.5501 16.0288 98.4 15.3055 98.25 14.5845C98.2202 14.4404 98.1894 14.2954 98.1586 14.1516C97.9297 13.0392 97.6363 11.8701 96.8428 10.9713ZM113.81 30.5409C112.577 33.9096 114.565 36.7551 116.54 39.5836C118.75 42.7475 120.944 45.8906 118.602 49.7216C123.153 47.8804 125.313 42.3179 123.425 37.9046C122.235 35.1131 119.367 33.5997 116.705 32.1952C115.673 31.6503 114.67 31.1215 113.81 30.5409ZM100.494 38.5824C99.6687 38.9122 98.8915 39.3451 98.1798 39.8704C99.7976 39.2956 101.494 38.9674 103.213 38.8967C103.525 38.8786 103.838 38.8644 104.155 38.8501C104.701 38.8254 105.257 38.8004 105.823 38.7542C106.752 38.6924 107.668 38.508 108.546 38.2061C109.468 37.8906 110.306 37.3789 111 36.7083C111.702 36.0159 112.195 35.1464 112.423 34.1964C112.623 33.299 112.595 32.3669 112.341 31.4829C112.086 30.5986 111.613 29.7895 110.963 29.1272C111.276 29.9065 111.469 30.7271 111.535 31.5623C111.592 32.3397 111.484 33.1203 111.218 33.8548C110.959 34.5511 110.535 35.1772 109.98 35.6816C109.408 36.191 108.745 36.5933 108.025 36.8689C107.024 37.2642 105.892 37.4258 104.713 37.5942C104.175 37.671 103.627 37.7493 103.077 37.8517C102.193 38.0103 101.328 38.2552 100.494 38.5824ZM114.79 52.4898L114.71 52.5521C114.502 52.7163 114.289 52.8835 114.062 53.0336C113.771 53.2212 113.466 53.3874 113.151 53.5304C112.492 53.8451 111.769 54.0058 111.037 53.9998C109.052 53.9634 107.651 52.5167 106.83 50.8816C106.616 50.4532 106.427 50.0114 106.237 49.5695C105.933 48.8625 105.63 48.1554 105.221 47.5022C104.273 45.9842 102.649 44.7621 100.748 44.9886C99.9726 45.0837 99.2455 45.4252 98.8146 46.0846C97.6806 47.8072 99.309 50.2205 101.384 49.8788C101.56 49.8524 101.733 49.8058 101.898 49.7401C102.063 49.6712 102.217 49.5796 102.355 49.4678C102.645 49.2312 102.863 48.9219 102.987 48.5727C103.123 48.2085 103.153 47.8145 103.075 47.4346C102.989 47.0374 102.749 46.6885 102.407 46.461C102.805 46.6439 103.116 46.9715 103.274 47.3743C103.437 47.7891 103.479 48.24 103.395 48.6768C103.313 49.1319 103.109 49.5571 102.802 49.9081C102.639 50.0885 102.451 50.2454 102.243 50.3739C102.037 50.5008 101.815 50.6032 101.585 50.679C101.116 50.8357 100.618 50.8864 100.127 50.827C99.4369 50.7306 98.7867 50.4542 98.2442 50.0267C98.1442 49.9492 98.048 49.8678 97.9547 49.7834C97.5854 49.4712 97.2497 49.1217 96.9544 48.7407C96.8217 48.5975 96.687 48.4563 96.5456 48.3206C95.8812 47.6372 95.097 47.0761 94.2304 46.6639C93.6329 46.4067 93.0075 46.2166 92.3664 46.0975C92.0438 46.0317 91.7176 45.9842 91.3914 45.9441C91.3559 45.9405 91.2879 45.9289 91.2031 45.9146C90.9308 45.8682 90.4871 45.7928 90.4089 45.8636C91.4173 44.9541 92.5163 44.1462 93.6898 43.4523C94.8947 42.7518 96.1888 42.2094 97.5373 41.8394C98.9367 41.4536 100.4 41.3435 101.842 41.5161C102.585 41.6034 103.312 41.7878 104.005 42.0639C104.73 42.3481 105.4 42.7537 105.984 43.2624C106.562 43.7961 107.03 44.4344 107.36 45.142C107.659 45.8047 107.881 46.4976 108.023 47.208C108.1 47.5905 108.158 48.0105 108.217 48.4454C108.489 50.427 108.803 52.7136 111.132 53.112C111.279 53.1403 111.429 53.161 111.579 53.1743L112.043 53.1851C112.362 53.1628 112.679 53.1183 112.992 53.0518C113.639 52.9026 114.27 52.6915 114.876 52.4217L114.79 52.4898ZM97.0766 48.874C97.1323 48.9364 97.1891 48.9982 97.2458 49.0595C97.2228 49.034 97.1997 49.0083 97.1756 48.9828C97.1429 48.9466 97.1102 48.9103 97.0766 48.874Z" fill="white"/>
<path d="M2.47466 16.9149C6.24198 9.40115 13.6755 4.42769 22.0293 3.83173C22.2699 3.81457 28.2324 3.79806 35.2792 3.7951L48.0916 3.78967V4.52903V5.26842L35.0699 5.2812C21.0071 5.29502 21.9355 5.28222 20.5644 5.48122C17.3147 5.95292 14.2127 7.13228 11.4901 8.93109C6.44895 12.2622 2.92328 17.5439 1.84943 23.3741C1.54889 25.0058 1.48384 25.9045 1.48384 28.425V30.4337H0.741923H0L0.000334398 28.4125C0.000524635 27.301 0.0174646 26.1524 0.03801 25.8601C0.260928 22.6883 1.07107 19.7142 2.47466 16.9149Z" fill="white"/>
<path d="M14.6288 8.83798C17.0693 7.64599 19.5664 6.98087 22.3713 6.77577C22.4655 6.7689 22.8122 6.76029 23.1418 6.75664L23.741 6.75V7.48427V8.21853L22.9707 8.24218C17.7965 8.40113 12.7429 10.8032 9.26069 14.7588C6.81315 17.539 5.19513 20.9827 4.66022 24.55C4.46952 25.8218 4.39571 27.6448 4.48684 28.8322C4.80323 32.954 6.3096 36.6468 8.98003 39.8472C9.48737 40.4553 10.7266 41.6916 11.3359 42.1975C13.8969 44.324 16.8596 45.7381 20.0412 46.3529C21.2447 46.5855 22.1734 46.6789 23.4557 46.6967C24.5253 46.7114 25.1293 46.6809 26.0856 46.5641C29.0247 46.2049 31.8227 45.1768 34.313 43.5411C39.0545 40.4264 42.1969 35.3897 42.8783 29.8121C42.9977 28.8342 43.0306 28.062 43.0308 26.2302L43.031 24.5126H43.7769H44.5229L44.504 26.6666C44.4815 29.2364 44.4175 30.0083 44.0956 31.5947C43.4083 34.9825 41.9151 38.0598 39.622 40.8141C39.103 41.4375 37.7557 42.7834 37.1357 43.298C35.0189 45.055 32.7503 46.3222 30.2427 47.1483C26.4547 48.3961 22.4062 48.5267 18.4905 47.5273C17.7318 47.3337 16.3928 46.8765 15.6159 46.5458C9.59659 43.9826 5.11316 38.7363 3.55928 32.4377C3.10542 30.598 2.94349 29.0993 2.97815 27.0602C3.00551 25.4535 3.1422 24.2951 3.47816 22.8237C4.20912 19.6222 5.71705 16.6307 7.90701 14.0373C8.42176 13.4277 9.66131 12.1912 10.2724 11.6777C11.6603 10.5115 13.0282 9.61971 14.6288 8.83798Z" fill="white"/>
<path d="M23.7402 11.1789V10.4388V9.69873L24.4727 9.72175C28.3209 9.84254 32.1344 11.3179 35.1922 13.8687C35.9877 14.5323 37.0872 15.6661 37.7296 16.4851C40.0904 19.4955 41.3704 22.9814 41.5309 26.8373L41.5572 27.473H40.8155H40.0738L40.0475 26.8941C39.9756 25.3093 39.7062 23.8012 39.2457 22.4061C37.7786 17.9591 34.4274 14.3171 30.1131 12.4802C28.3318 11.7217 26.2927 11.2626 24.4346 11.2016L23.7402 11.1789Z" fill="white"/>
<path d="M10.4246 20.9161C12.7089 16.2968 17.2921 13.16 22.41 12.7131C22.9425 12.6666 24.4936 12.6654 24.9972 12.711C27.8168 12.9666 30.3458 13.927 32.5936 15.5956C35.5935 17.8227 37.6596 21.1305 38.3293 24.7785C38.5043 25.7324 38.5564 26.3493 38.5567 27.4733C38.5573 28.8696 38.4452 29.8046 38.1242 31.079C37.0608 35.3019 34.1728 38.8482 30.2287 40.7739C28.3866 41.6733 26.4398 42.1617 24.3029 42.2605L23.7417 42.2865V41.5462V40.8059L24.2458 40.78C27.7379 40.6003 30.7389 39.2835 33.1598 36.8685C34.5212 35.5103 35.4831 34.0494 36.1777 32.2845C36.7955 30.7149 37.0722 29.2299 37.0739 27.4733C37.075 26.3072 36.9797 25.4482 36.735 24.4179C36.2474 22.3642 35.1853 20.2999 33.8159 18.7438C31.6121 16.2397 28.736 14.6989 25.4157 14.244C24.8092 14.1609 23.3053 14.13 22.6293 14.1868C19.5605 14.445 16.7104 15.7363 14.4706 17.8834C12.9328 19.3578 11.7302 21.2566 11.0533 23.2794C10.6574 24.4625 10.3877 26.0108 10.3872 27.1033L10.3871 27.4733H9.64523H8.90332L8.90368 27.0653C8.90486 25.7974 9.20056 24.1126 9.65821 22.7653C9.91329 22.0147 10.0786 21.6158 10.4246 20.9161Z" fill="white"/>
<path d="M43.0312 20.0725V19.3324V18.5923H43.7731H44.5151V19.3324V20.0725H43.7731H43.0312Z" fill="white"/>
<path d="M17.5768 22.0523C17.5768 20.9911 17.5894 20.1105 17.6048 20.0949C17.6203 20.0796 19.4737 20.0741 21.7235 20.0827C26.157 20.0997 26.1429 20.0991 27.0658 20.3176C29.6241 20.923 31.0317 22.6673 30.8173 24.9665C30.7691 25.4835 30.7108 25.752 30.554 26.1807C30.1791 27.2054 29.3859 28.0257 28.2023 28.6126C27.985 28.7202 27.8543 28.8047 27.8876 28.8157C29.0486 29.1982 29.4111 29.3561 29.9762 29.7253C30.9666 30.3727 31.559 31.2136 31.7721 32.2747C31.851 32.6673 31.8401 33.6688 31.7527 34.0775C31.3088 36.1507 29.6373 37.4796 26.9174 37.9215C26.4376 37.9995 26.2899 38.0024 21.9997 38.0151L17.5768 38.0283V37.4218V36.8154L21.8857 36.7999C26.4917 36.7833 26.5 36.783 27.322 36.5877C29.3149 36.1144 30.4749 34.8345 30.4749 33.1089C30.4749 31.4275 29.3577 30.269 27.3059 29.8222C26.3857 29.6218 26.4443 29.6245 22.5515 29.6091L18.9085 29.5947V31.0011V32.4075H18.2423H17.5762L17.586 30.3865L17.5958 28.3653L21.724 28.344C25.7381 28.3234 25.8622 28.3205 26.2174 28.2429C26.4184 28.1989 26.739 28.1108 26.9298 28.0469C28.222 27.6151 29.0898 26.7322 29.3777 25.5568C29.4946 25.079 29.4948 24.248 29.3781 23.8189C29.0062 22.4511 27.7575 21.5823 25.8506 21.3644C25.6432 21.3407 24.2171 21.3253 22.2091 21.3251L18.9085 21.3248V22.6532V23.9816H18.2426H17.5768V22.0523Z" fill="white"/>
<path d="M43.0312 23.0326V22.2925V21.5524H43.7731H44.5151V22.2925V23.0326H43.7731H43.0312Z" fill="white"/>
<path d="M45.998 25.9925V25.2523V24.5122H46.7399H47.4819V25.2523V25.9925H46.7399H45.998Z" fill="white"/>
<path d="M17.5762 26.8657V26.1635V25.4614H18.242H18.9078V26.1635V26.8657H18.242H17.5762Z" fill="white"/>
<path d="M45.5783 31.7333C45.8111 30.5629 45.9911 28.8502 45.9971 27.7478L45.9986 27.4725H46.7465H47.4943L47.4681 28.1842C47.3956 30.1577 47.1325 31.9197 46.6441 33.702C44.1479 42.8109 36.3852 49.6282 27.0322 50.9257C25.4499 51.1452 26.2961 51.132 12.9072 51.1456L0.608398 51.158V50.4169V49.6759L12.4696 49.6757C23.9518 49.6756 24.9105 49.6674 25.9669 49.5602C32.1546 48.9335 37.7602 45.7652 41.5431 40.7566C42.4002 39.6218 43.0221 38.6084 43.6972 37.2459C44.5931 35.4376 45.1884 33.6935 45.5783 31.7333Z" fill="white"/>
<path d="M8.94043 30.0162V29.2761V28.536H9.68239H10.4242V29.2761V30.0162H9.68239H8.94043Z" fill="white"/>
<path d="M11.7939 30.0162V29.2761V28.536H12.5359H13.2779V29.2761V30.0162H12.5359H11.7939Z" fill="white"/>
<path d="M14.7246 30.0162V29.2761V28.536H15.4666H16.2085V29.2761V30.0162H15.4666H14.7246Z" fill="white"/>
<path d="M0 33.3941V32.6539V31.9138H0.73263H1.4653V32.6539V33.3941H0.73263H0Z" fill="white"/>
<path d="M17.5969 35.3107L17.5865 34.5989L17.5762 33.8873H18.2428H18.9096V34.6093V35.3314L18.2532 35.321L17.5969 35.3107Z" fill="white"/>
<path d="M0 36.3542V35.6141V34.874H0.73263H1.4653V35.6141V36.3542H0.73263H0Z" fill="white"/>
<path d="M0 39.4287V38.6884V37.9484H0.73263H1.4653V38.6884V39.4287H0.73263H0Z" fill="white"/>
<path fill-rule="evenodd" clip-rule="evenodd" d="M70.3935 21.7897L72.1373 23.5072L66.3101 29.2466C66.003 28.4587 65.3664 27.8316 64.5664 27.5291L70.3935 21.7897ZM62.395 27.5291L56.5679 21.7897L54.8242 23.5072L60.6513 29.2466C60.9584 28.4587 61.595 27.8316 62.395 27.5291ZM60.6513 31.3854L54.8242 37.1248L56.5679 38.8423L62.395 33.1029C61.595 32.8004 60.9584 32.1733 60.6513 31.3854ZM64.5664 33.1029L70.3935 38.8423L72.1373 37.1248L66.3101 31.3854C66.003 32.1733 65.3664 32.8004 64.5664 33.1029Z" fill="white"/>
</g>
<defs>
<clipPath id="clip0_178_4090">
<rect width="126" height="54" fill="white"/>
</clipPath>
</defs>
</svg>
