<svg width="90" height="40" viewBox="0 0 124 58" fill="none" xmlns="http://www.w3.org/2000/svg">
<path fill-rule="evenodd" clip-rule="evenodd" d="M92.6205 21.2403C92.513 21.6513 92.3254 22.0371 92.0682 22.3761C91.5894 22.9942 90.9557 23.4762 90.2307 23.774C89.5787 24.0535 88.888 24.2343 88.182 24.31C88.0369 24.3283 87.8865 24.3396 87.7407 24.3506L87.7169 24.3524C87.2698 24.3693 86.8399 24.5282 86.4901 24.8057C86.1402 25.0834 85.889 25.4652 85.773 25.895C85.7199 26.1089 85.6803 26.3259 85.6548 26.5448C85.6141 26.8749 85.5933 27.2128 85.5706 27.5783C85.5544 27.8405 85.5372 28.1171 85.5113 28.4151C85.3595 29.6292 85.0064 30.8099 84.4666 31.9091C84.3564 32.1401 84.2439 32.3642 84.1333 32.5842C83.5416 33.7634 83.0068 34.8286 83.1603 36.2552C83.2804 37.3545 83.8464 38.091 84.5985 38.8507C84.9557 39.2141 85.4292 39.5246 85.9208 39.847C87.2968 40.7491 88.8137 41.7437 88.3139 44.2496C87.9049 46.2801 84.5209 48.4109 79.7646 49.1551C80.226 49.0854 79.2097 47.3604 79.097 47.169L79.0901 47.1574C78.959 46.9531 78.8247 46.7518 78.6907 46.5509C78.3036 45.9705 77.918 45.3932 77.6172 44.753C76.8226 43.0813 76.4542 41.1472 76.7798 39.3153C77.0748 37.6575 78.1766 36.3331 79.2373 35.0579C79.4103 34.85 79.5821 34.6435 79.7492 34.4371C81.1679 32.6843 82.6565 30.3877 82.9858 28.1125C83.0137 27.9148 83.0385 27.6992 83.0646 27.4725C83.1113 27.0665 83.1621 26.6246 83.2417 26.1843C83.3599 25.4238 83.5995 24.6869 83.9511 24.0015C84.1911 23.5521 84.5071 23.147 84.8853 22.8041C85.0825 22.6221 85.2125 22.3794 85.2548 22.1151C85.2969 21.8509 85.2487 21.5802 85.1179 21.3463L77.5358 7.77938L88.4263 21.1497C88.5504 21.3046 88.7071 21.4306 88.8855 21.5184C89.0639 21.6062 89.2596 21.6539 89.4585 21.6582C89.6577 21.6625 89.8551 21.6231 90.0372 21.5428C90.2192 21.4626 90.3812 21.3435 90.5118 21.194C90.6498 21.034 90.728 20.8315 90.7332 20.6206C90.7386 20.4099 90.6706 20.2038 90.5408 20.0371C90.0345 19.3933 89.5075 18.7408 88.983 18.0912C88.7707 17.8285 88.5587 17.5657 88.3488 17.3048L85.6082 13.9305L80.1076 7.19316L74 0L80.8132 6.58966L86.6683 13.0299L89.5893 16.2577C89.8577 16.5584 90.126 16.8564 90.3942 17.1542C91.0949 17.9323 91.7957 18.7104 92.4964 19.5358L92.6554 19.7285L92.6903 20.0274C92.7375 20.4327 92.7139 20.8431 92.6205 21.2403ZM120.629 25.7746L120.641 25.792C120.639 24.3535 119.743 21.9799 117.931 19.6968L117.888 19.6409C117.33 18.9546 116.722 18.3101 116.068 17.7127C115.946 17.5951 115.815 17.4793 115.681 17.3637C114.844 16.6373 113.928 16.0048 112.952 15.4779L112.882 15.4431C109.814 13.781 105.821 12.925 100.898 13.889C100.237 13.0904 99.5251 12.335 98.7665 11.6273C97.6046 10.5258 96.2369 9.66183 94.7409 9.08398C93.2583 8.54408 91.6705 8.35134 90.1008 8.52092C91.6138 8.65648 93.0876 9.07508 94.4444 9.75499C95.7547 10.4534 96.9347 11.3704 97.933 12.4661C98.9449 13.5846 99.896 14.7559 100.782 15.9754L101.005 16.2634C101.872 17.3869 102.754 18.5306 103.854 19.5485C104.46 20.1151 105.135 20.603 105.864 21.0004C106.058 21.0987 106.254 21.1912 106.446 21.2722C106.637 21.3533 106.818 21.4284 107.011 21.4979C107.386 21.6424 107.773 21.7621 108.161 21.872C109.711 22.3116 111.299 22.4696 112.849 22.5545C113.065 22.5658 113.28 22.5763 113.495 22.5868C114.048 22.614 114.598 22.6409 115.138 22.6798C115.879 22.7236 116.614 22.8385 117.332 23.023C118.412 23.303 119.362 23.9427 120.024 24.8355C120.25 25.1329 120.452 25.4468 120.629 25.7746ZM116.09 17.715C116.012 17.6434 115.933 17.5725 115.854 17.5018C115.803 17.4563 115.753 17.4111 115.703 17.3659C115.741 17.4009 115.78 17.4364 115.819 17.472C115.91 17.5556 116.001 17.6391 116.09 17.715ZM114.152 31.9155C109.166 29.9027 103.95 27.797 104.727 21.8875C106.392 23.6557 109.005 24.0266 111.847 24.43C114.426 24.7959 117.192 25.1885 119.61 26.6752C125.316 30.1807 124.483 36.9911 122.545 39.4979C122.719 35.3739 118.524 33.6804 114.152 31.9155ZM94.0639 28.9577C95.38 28.8323 98.1846 28.1517 96.9306 25.9554C96.6608 25.5086 96.2698 25.1467 95.8025 24.9108C95.3352 24.6752 94.8106 24.5754 94.2888 24.623C93.7594 24.6796 93.2601 24.8967 92.859 25.2452C92.4579 25.5936 92.1741 26.0562 92.0464 26.5704C91.6568 28.007 92.0696 29.1504 94.0639 28.9577ZM93.6857 11.5808C92.8601 10.6321 91.5789 10.1346 90.323 9.95343C90.276 10.2646 90.2463 10.5781 90.2339 10.8925C90.1776 13.482 91.1021 16.3261 92.8911 18.3026C93.4634 18.9416 94.1535 19.4651 94.9242 19.8452C95.3699 20.0611 96.5524 20.5971 96.9903 20.1151C97.0236 20.0709 97.0446 20.0187 97.0511 19.9639C97.0576 19.909 97.0493 19.8534 97.0272 19.8028C96.9545 19.5964 96.8144 19.409 96.6752 19.223C96.5765 19.0912 96.4782 18.9601 96.405 18.8231C96.3309 18.6853 96.2516 18.5506 96.1725 18.4163C96.0237 18.1637 95.8753 17.9116 95.7615 17.6373C95.4611 16.9193 95.3048 16.1558 95.1489 15.3947C95.1178 15.2426 95.0865 15.0896 95.0541 14.9378C94.8158 13.7636 94.5114 12.5295 93.6857 11.5808ZM111.326 32.2376C110.045 35.7935 112.111 38.797 114.165 41.7827C116.462 45.1224 118.744 48.4401 116.309 52.4839C121.04 50.5404 123.286 44.6689 121.323 40.0104C120.086 37.0638 117.104 35.4663 114.336 33.9838C113.263 33.4086 112.221 32.8505 111.326 32.2376ZM97.4815 40.7259C96.6241 41.074 95.8156 41.5309 95.0762 42.0854C96.7576 41.4787 98.5224 41.1322 100.309 41.0576C100.633 41.0385 100.959 41.0235 101.288 41.0084C101.856 40.9824 102.434 40.956 103.023 40.9072C103.988 40.842 104.941 40.6473 105.854 40.3287C106.812 39.9956 107.683 39.4555 108.405 38.7476C109.135 38.0168 109.647 37.099 109.884 36.0962C110.092 35.1489 110.063 34.1651 109.799 33.2319C109.534 32.2985 109.042 31.4445 108.366 30.7454C108.692 31.568 108.893 32.4342 108.961 33.3158C109.02 34.1364 108.908 34.9603 108.632 35.7356C108.362 36.4706 107.921 37.1315 107.345 37.6639C106.75 38.2016 106.061 38.6263 105.312 38.9172C104.271 39.3344 103.094 39.505 101.868 39.6828C101.309 39.7638 100.739 39.8465 100.168 39.9546C99.2489 40.122 98.3488 40.3805 97.4815 40.7259ZM112.345 55.4059L112.262 55.4717C112.046 55.645 111.825 55.8215 111.588 55.9799C111.286 56.1779 110.969 56.3534 110.641 56.5043C109.956 56.8365 109.204 57.0061 108.443 56.9998C106.38 56.9614 104.923 55.4343 104.07 53.7084C103.847 53.2561 103.65 52.7898 103.453 52.3234C103.137 51.5771 102.822 50.8307 102.397 50.1412C101.411 48.5389 99.7228 47.2489 97.7459 47.488C96.9396 47.5883 96.1836 47.9488 95.736 48.6449C94.5575 50.4632 96.2496 53.0105 98.4067 52.6498C98.5902 52.622 98.7697 52.5728 98.9417 52.5034C99.1131 52.4307 99.273 52.334 99.4165 52.216C99.718 51.9663 99.9449 51.6398 100.074 51.2712C100.215 50.8868 100.247 50.4709 100.165 50.0699C100.076 49.6506 99.8273 49.2823 99.4708 49.0422C99.8854 49.2352 100.208 49.581 100.372 50.0062C100.542 50.444 100.585 50.92 100.498 51.3811C100.413 51.8614 100.201 52.3103 99.8816 52.6808C99.7124 52.8712 99.5165 53.0368 99.3003 53.1724C99.0859 53.3064 98.8562 53.4145 98.6161 53.4945C98.1292 53.6599 97.611 53.7134 97.1004 53.6507C96.3835 53.549 95.7074 53.2572 95.1429 52.806C95.0386 52.7241 94.9386 52.6382 94.8417 52.5491C94.4577 52.2196 94.1091 51.8507 93.8017 51.4485C93.6637 51.2974 93.5236 51.1483 93.3772 51.0051C92.6862 50.2837 91.8709 49.6914 90.9699 49.2563C90.3487 48.9848 89.6985 48.7842 89.0319 48.6585C88.6965 48.589 88.3574 48.5389 88.0182 48.4965C87.9813 48.4928 87.9106 48.4805 87.8225 48.4654C87.5394 48.4164 87.0781 48.3368 86.9968 48.4116C88.0452 47.4515 89.1878 46.5988 90.4079 45.8663C91.6606 45.1269 93.0056 44.5544 94.4084 44.1638C95.8626 43.7566 97.3839 43.6404 98.8836 43.8225C99.6555 43.9147 100.412 44.1093 101.132 44.4008C101.886 44.7008 102.583 45.1289 103.19 45.6659C103.791 46.2292 104.277 46.903 104.62 47.6499C104.931 48.3494 105.162 49.0808 105.31 49.8307C105.39 50.2344 105.45 50.6777 105.512 51.1368C105.794 53.2285 106.121 55.6421 108.542 56.0627C108.695 56.0925 108.851 56.1144 109.007 56.1284L109.489 56.1398C109.821 56.1163 110.151 56.0693 110.476 55.9991C111.149 55.8416 111.805 55.6188 112.435 55.334L112.345 55.4059ZM93.929 51.5892C93.987 51.6551 94.0456 51.7203 94.105 51.785C94.0807 51.7581 94.0566 51.731 94.0323 51.7041C93.9979 51.6658 93.9636 51.6275 93.929 51.5892Z" fill="#FC72FF"/>
<path d="M2.57286 17.8544C6.48968 9.92323 14.2182 4.67346 22.9035 4.04439C23.1536 4.02628 29.3527 4.00885 36.6792 4.00573L50 4V4.78043V5.5609L36.4616 5.57439C21.8407 5.58898 22.806 5.57547 21.3805 5.78552C18.0018 6.28343 14.7767 7.52831 11.9461 9.42705C6.70486 12.9432 3.03928 18.5184 1.92282 24.6724C1.61035 26.3948 1.54272 27.3434 1.54272 30.004V32.1242H0.771364H0L0.000347668 29.9908C0.000545454 28.8175 0.0181576 27.6051 0.0395183 27.2966C0.271282 23.9485 1.11357 20.8092 2.57286 17.8544Z" fill="url(#paint0_linear_147_15674)"/>
<path d="M15.2098 9.32864C17.7472 8.07043 20.3433 7.36836 23.2596 7.15186C23.3574 7.14461 23.718 7.13552 24.0606 7.13167L24.6836 7.12466V7.89972V8.67478L23.8826 8.69974C18.5031 8.86752 13.2491 11.403 9.62864 15.5784C7.08398 18.5131 5.40175 22.1481 4.84561 25.9135C4.64735 27.256 4.57061 29.1803 4.66535 30.4336C4.9943 34.7844 6.56045 38.6824 9.33685 42.0606C9.86432 42.7025 11.1528 44.0075 11.7862 44.5415C14.4488 46.7861 17.529 48.2788 20.8369 48.9277C22.0882 49.1732 23.0537 49.2718 24.3869 49.2906C25.4989 49.3061 26.127 49.2739 27.1213 49.1506C30.1769 48.7715 33.086 47.6863 35.675 45.9597C40.6048 42.672 43.8719 37.3555 44.5803 31.468C44.7044 30.4358 44.7386 29.6207 44.7388 27.6871L44.739 25.8741H45.5146H46.2902L46.2705 28.1477C46.247 30.8603 46.1806 31.6751 45.8459 33.3496C45.1314 36.9256 43.5789 40.1739 41.1948 43.0812C40.6552 43.7392 39.2545 45.1599 38.6098 45.7031C36.409 47.5577 34.0504 48.8953 31.4433 49.7673C27.505 51.0844 23.2958 51.2223 19.2248 50.1674C18.4359 49.963 17.0438 49.4804 16.2361 49.1313C9.97787 46.4257 5.31654 40.888 3.70099 34.2395C3.22912 32.2976 3.06076 30.7156 3.0968 28.5632C3.12524 26.8672 3.26736 25.6445 3.61665 24.0913C4.37661 20.712 5.94439 17.5543 8.22125 14.8168C8.75642 14.1733 10.0451 12.8682 10.6804 12.3261C12.1234 11.0951 13.5457 10.1538 15.2098 9.32864Z" fill="url(#paint1_linear_147_15674)"/>
<path d="M24.6836 11.7996V11.0184V10.2372L25.4451 10.2615C29.446 10.389 33.4109 11.9463 36.59 14.6388C37.4171 15.3393 38.5602 16.5361 39.2281 17.4006C41.6826 20.5782 43.0134 24.2578 43.1802 28.3279L43.2076 28.9989H42.4365H41.6653L41.638 28.3879C41.5632 26.715 41.2831 25.1231 40.8044 23.6505C39.279 18.9565 35.7949 15.1121 31.3094 13.1732C29.4574 12.3726 27.3374 11.888 25.4055 11.8236L24.6836 11.7996Z" fill="url(#paint2_linear_147_15674)"/>
<path d="M10.838 22.0778C13.2129 17.2019 17.978 13.8908 23.299 13.4191C23.8526 13.37 25.4653 13.3687 25.9889 13.4169C28.9204 13.6867 31.5497 14.7004 33.8867 16.4617C37.0057 18.8126 39.1538 22.3041 39.85 26.1548C40.032 27.1617 40.0861 27.8129 40.0865 28.9993C40.0871 30.4732 39.9705 31.4601 39.6368 32.8053C38.5312 37.2628 35.5286 41.0061 31.428 43.0388C29.5128 43.9882 27.4887 44.5037 25.267 44.608L24.6836 44.6355V43.854V43.0726L25.2077 43.0453C28.8383 42.8556 31.9584 41.4656 34.4754 38.9164C35.8908 37.4828 36.8909 35.9407 37.6131 34.0778C38.2554 32.421 38.543 30.8535 38.5448 28.9993C38.546 27.7684 38.4469 26.8617 38.1925 25.7742C37.6855 23.6064 36.5813 21.4274 35.1575 19.7848C32.8663 17.1416 29.876 15.5152 26.424 15.035C25.7934 14.9473 24.2298 14.9147 23.527 14.9747C20.3364 15.2472 17.3732 16.6102 15.0446 18.8766C13.4457 20.4329 12.1954 22.4372 11.4916 24.5724C11.08 25.8212 10.7996 27.4555 10.7991 28.6087L10.799 28.9993H10.0277H9.25635L9.25672 28.5686C9.25795 27.2303 9.56538 25.4519 10.0412 24.0297C10.3064 23.2374 10.4783 22.8164 10.838 22.0778Z" fill="url(#paint3_linear_147_15674)"/>
<path d="M44.7389 21.1872V20.406V19.6248H45.5102H46.2816V20.406V21.1872H45.5102H44.7389Z" fill="url(#paint4_linear_147_15674)"/>
<path d="M18.2754 23.2772C18.2754 22.1571 18.2885 21.2275 18.3045 21.2111C18.3205 21.1949 20.2475 21.1891 22.5865 21.1982C27.196 21.2162 27.1813 21.2155 28.1409 21.4462C30.8007 22.0852 32.2641 23.9264 32.0413 26.3533C31.9911 26.899 31.9305 27.1825 31.7674 27.635C31.3777 28.7166 30.553 29.5825 29.3224 30.202C29.0966 30.3156 28.9607 30.4048 28.9953 30.4164C30.2024 30.8201 30.5793 30.9868 31.1668 31.3765C32.1965 32.0599 32.8124 32.9475 33.034 34.0675C33.116 34.4819 33.1047 35.5391 33.0138 35.9705C32.5523 38.1589 30.8143 39.5616 27.9866 40.0281C27.4878 40.1104 27.3342 40.1134 22.8738 40.1269L18.2754 40.1408V39.5006V38.8605L22.7552 38.8441C27.544 38.8266 27.5526 38.8263 28.4073 38.6201C30.4792 38.1206 31.6852 36.7696 31.6852 34.9481C31.6852 33.1733 30.5238 31.9504 28.3905 31.4788C27.4338 31.2673 27.4946 31.2701 23.4474 31.2539L19.6598 31.2387V32.7232V34.2077H18.9673H18.2746L18.2849 32.0744L18.2951 29.941L22.5871 29.9185C26.7605 29.8967 26.8895 29.8937 27.2588 29.8118C27.4677 29.7653 27.8011 29.6723 27.9994 29.6049C29.3429 29.1491 30.2452 28.2171 30.5444 26.9764C30.666 26.4721 30.6662 25.5949 30.5449 25.142C30.1582 23.6982 28.86 22.7811 26.8774 22.5511C26.6618 22.5261 25.1791 22.5098 23.0914 22.5096L19.6598 22.5093V23.9115V25.3137H18.9676H18.2754V23.2772Z" fill="url(#paint5_linear_147_15674)"/>
<path d="M44.7389 24.312V23.5307V22.7495H45.5102H46.2816V23.5307V24.312H45.5102H44.7389Z" fill="url(#paint6_linear_147_15674)"/>
<path d="M47.8243 27.4366V26.6553V25.8741H48.5956H49.367V26.6553V27.4366H48.5956H47.8243Z" fill="url(#paint7_linear_147_15674)"/>
<path d="M18.2753 28.3583V27.6171V26.876H18.9676H19.6598V27.6171V28.3583H18.9676H18.2753Z" fill="url(#paint8_linear_147_15674)"/>
<path d="M47.3874 33.4962C47.6295 32.2608 47.8166 30.4529 47.8229 29.2893L47.8245 28.9987H48.6019H49.3794L49.3522 29.7499C49.2769 31.833 49.0033 33.6929 48.4956 35.5743C45.9002 45.1892 37.8296 52.3852 28.1054 53.7548C26.4603 53.9865 27.3401 53.9726 13.4198 53.9869L0.632996 54V53.2178V52.4356L12.9649 52.4354C24.9027 52.4353 25.8995 52.4266 26.9977 52.3135C33.431 51.6519 39.259 48.3076 43.1921 43.0208C44.0833 41.8229 44.7297 40.7532 45.4317 39.315C46.3632 37.4063 46.982 35.5653 47.3874 33.4962Z" fill="url(#paint9_linear_147_15674)"/>
<path d="M9.29584 31.6837V30.9025V30.1213H10.0673H10.8386V30.9025V31.6837H10.0673H9.29584Z" fill="url(#paint10_linear_147_15674)"/>
<path d="M12.2626 31.6837V30.9025V30.1213H13.034H13.8054V30.9025V31.6837H13.034H12.2626Z" fill="url(#paint11_linear_147_15674)"/>
<path d="M15.3086 31.6837V30.9025V30.1213H16.08H16.8514V30.9025V31.6837H16.08H15.3086Z" fill="url(#paint12_linear_147_15674)"/>
<path d="M0 35.249V34.4677V33.6865H0.761703H1.52345V34.4677V35.249H0.761703H0Z" fill="url(#paint13_linear_147_15674)"/>
<path d="M18.2949 37.2725L18.2841 36.5212L18.2734 35.7701H18.9665H19.6596V36.5322V37.2944L18.9773 37.2834L18.2949 37.2725Z" fill="url(#paint14_linear_147_15674)"/>
<path d="M0 38.3735V37.5923V36.8111H0.761703H1.52345V37.5923V38.3735H0.761703H0Z" fill="url(#paint15_linear_147_15674)"/>
<path d="M0 41.6191V40.8377V40.0565H0.761703H1.52345V40.8377V41.6191H0.761703H0Z" fill="url(#paint16_linear_147_15674)"/>
<path d="M62 0V58" stroke="url(#paint17_linear_147_15674)"/>
<defs>
<linearGradient id="paint0_linear_147_15674" x1="2.4731" y1="18.9243" x2="48.9673" y2="18.9243" gradientUnits="userSpaceOnUse">
<stop stop-color="#29418B"/>
<stop offset="1" stop-color="#3874AE"/>
</linearGradient>
<linearGradient id="paint1_linear_147_15674" x1="5.22876" y1="30.3376" x2="45.3979" y2="30.3376" gradientUnits="userSpaceOnUse">
<stop stop-color="#29418B"/>
<stop offset="1" stop-color="#3874AE"/>
</linearGradient>
<linearGradient id="paint2_linear_147_15674" x1="25.5998" y1="20.1932" x2="42.8251" y2="20.1932" gradientUnits="userSpaceOnUse">
<stop stop-color="#29418B"/>
<stop offset="1" stop-color="#3874AE"/>
</linearGradient>
<linearGradient id="paint3_linear_147_15674" x1="10.7813" y1="29.9667" x2="39.4497" y2="29.9667" gradientUnits="userSpaceOnUse">
<stop stop-color="#29418B"/>
<stop offset="1" stop-color="#3874AE"/>
</linearGradient>
<linearGradient id="paint4_linear_147_15674" x1="44.8152" y1="20.4539" x2="46.2498" y2="20.4539" gradientUnits="userSpaceOnUse">
<stop stop-color="#29418B"/>
<stop offset="1" stop-color="#3874AE"/>
</linearGradient>
<linearGradient id="paint5_linear_147_15674" x1="19.0073" y1="31.2482" x2="32.7833" y2="31.2482" gradientUnits="userSpaceOnUse">
<stop stop-color="#29418B"/>
<stop offset="1" stop-color="#3874AE"/>
</linearGradient>
<linearGradient id="paint6_linear_147_15674" x1="44.8152" y1="23.5786" x2="46.2498" y2="23.5786" gradientUnits="userSpaceOnUse">
<stop stop-color="#29418B"/>
<stop offset="1" stop-color="#3874AE"/>
</linearGradient>
<linearGradient id="paint7_linear_147_15674" x1="47.9005" y1="26.7032" x2="49.3351" y2="26.7032" gradientUnits="userSpaceOnUse">
<stop stop-color="#29418B"/>
<stop offset="1" stop-color="#3874AE"/>
</linearGradient>
<linearGradient id="paint8_linear_147_15674" x1="18.3438" y1="27.6626" x2="19.6312" y2="27.6626" gradientUnits="userSpaceOnUse">
<stop stop-color="#29418B"/>
<stop offset="1" stop-color="#3874AE"/>
</linearGradient>
<linearGradient id="paint9_linear_147_15674" x1="3.04408" y1="42.2659" x2="48.3726" y2="42.2659" gradientUnits="userSpaceOnUse">
<stop stop-color="#29418B"/>
<stop offset="1" stop-color="#3874AE"/>
</linearGradient>
<linearGradient id="paint10_linear_147_15674" x1="9.37215" y1="30.9504" x2="10.8067" y2="30.9504" gradientUnits="userSpaceOnUse">
<stop stop-color="#29418B"/>
<stop offset="1" stop-color="#3874AE"/>
</linearGradient>
<linearGradient id="paint11_linear_147_15674" x1="12.3389" y1="30.9504" x2="13.7736" y2="30.9504" gradientUnits="userSpaceOnUse">
<stop stop-color="#29418B"/>
<stop offset="1" stop-color="#3874AE"/>
</linearGradient>
<linearGradient id="paint12_linear_147_15674" x1="15.3848" y1="30.9504" x2="16.8195" y2="30.9504" gradientUnits="userSpaceOnUse">
<stop stop-color="#29418B"/>
<stop offset="1" stop-color="#3874AE"/>
</linearGradient>
<linearGradient id="paint13_linear_147_15674" x1="0.0753527" y1="34.5157" x2="1.49198" y2="34.5157" gradientUnits="userSpaceOnUse">
<stop stop-color="#29418B"/>
<stop offset="1" stop-color="#3874AE"/>
</linearGradient>
<linearGradient id="paint14_linear_147_15674" x1="18.342" y1="36.579" x2="19.6311" y2="36.579" gradientUnits="userSpaceOnUse">
<stop stop-color="#29418B"/>
<stop offset="1" stop-color="#3874AE"/>
</linearGradient>
<linearGradient id="paint15_linear_147_15674" x1="0.0753527" y1="37.6402" x2="1.49198" y2="37.6402" gradientUnits="userSpaceOnUse">
<stop stop-color="#29418B"/>
<stop offset="1" stop-color="#3874AE"/>
</linearGradient>
<linearGradient id="paint16_linear_147_15674" x1="0.0753527" y1="40.8856" x2="1.49198" y2="40.8856" gradientUnits="userSpaceOnUse">
<stop stop-color="#29418B"/>
<stop offset="1" stop-color="#3874AE"/>
</linearGradient>
<linearGradient id="paint17_linear_147_15674" x1="62.5" y1="0" x2="62.5" y2="58" gradientUnits="userSpaceOnUse">
<stop stop-color="#FC72FF"/>
<stop offset="1" stop-color="#2A458E"/>
</linearGradient>
</defs>
</svg>
