<svg width="90" height="40" viewBox="0 0 94 50" fill="none" xmlns="http://www.w3.org/2000/svg">
<path fill-rule="evenodd" clip-rule="evenodd" d="M80.193 19.3159C80.1457 19.4962 80.0632 19.6654 79.95 19.8141C79.7393 20.0852 79.4605 20.2966 79.1415 20.4272C78.8546 20.5498 78.5507 20.6291 78.2401 20.6623C78.1762 20.6703 78.1101 20.6752 78.0459 20.6801L78.0354 20.6809C77.8387 20.6883 77.6496 20.758 77.4956 20.8797C77.3417 21.0015 77.2311 21.1689 77.1801 21.3574C77.1568 21.4513 77.1393 21.5464 77.1281 21.6424C77.1102 21.7872 77.101 21.9354 77.0911 22.0957C77.0839 22.2107 77.0763 22.3321 77.065 22.4628C76.9982 22.9953 76.8428 23.5131 76.6053 23.9952C76.5568 24.0966 76.5073 24.1948 76.4587 24.2913C76.1983 24.8085 75.963 25.2757 76.0305 25.9014C76.0834 26.3835 76.3324 26.7066 76.6633 27.0398C76.8205 27.1992 77.0289 27.3354 77.2452 27.4768C77.8506 27.8724 78.518 28.3086 78.2981 29.4077C78.1181 30.2983 76.6292 31.2328 74.5364 31.5592C74.7394 31.5287 74.2923 30.7721 74.2427 30.6881L74.2397 30.6831C74.182 30.5935 74.1228 30.5052 74.0639 30.417C73.8936 30.1625 73.7239 29.9093 73.5916 29.6285C73.2419 28.8953 73.0799 28.047 73.2231 27.2436C73.3529 26.5164 73.8377 25.9356 74.3044 25.3763C74.3805 25.2851 74.4561 25.1945 74.5296 25.104C75.1539 24.3352 75.8088 23.3279 75.9538 22.33C75.966 22.2433 75.9769 22.1488 75.9884 22.0493C76.009 21.8713 76.0313 21.6774 76.0664 21.4843C76.1184 21.1508 76.2238 20.8276 76.3785 20.527C76.4841 20.3299 76.6231 20.1522 76.7895 20.0018C76.8763 19.922 76.9335 19.8155 76.9521 19.6996C76.9706 19.5837 76.9494 19.465 76.8919 19.3624L73.5557 13.412L78.3476 19.2762C78.4022 19.3441 78.4711 19.3994 78.5496 19.4379C78.6281 19.4764 78.7142 19.4973 78.8018 19.4992C78.8894 19.5011 78.9763 19.4838 79.0564 19.4486C79.1364 19.4134 79.2077 19.3612 79.2652 19.2956C79.3259 19.2255 79.3603 19.1366 79.3626 19.0441C79.365 18.9517 79.3351 18.8613 79.2779 18.7882C79.0552 18.5058 78.8233 18.2197 78.5925 17.9347C78.4991 17.8195 78.4058 17.7043 78.3135 17.5898L77.1076 16.1099L74.6874 13.1549L72 10L74.9978 12.8902L77.5741 15.7149L78.8593 17.1306C78.9774 17.2625 79.0954 17.3932 79.2134 17.5238C79.5218 17.865 79.8301 18.2063 80.1384 18.5683L80.2084 18.6529L80.2237 18.784C80.2445 18.9617 80.2341 19.1417 80.193 19.3159ZM92.5168 21.3046L92.5218 21.3123C92.521 20.6813 92.127 19.6403 91.3297 18.639L91.3109 18.6144C91.0653 18.3134 90.7976 18.0308 90.5101 17.7687C90.4564 17.7172 90.3984 17.6664 90.3396 17.6157C89.9712 17.2971 89.5685 17.0196 89.1389 16.7885L89.1081 16.7733C87.7582 16.0443 86.0014 15.6688 83.8353 16.0917C83.5444 15.7414 83.2311 15.4101 82.8972 15.0997C82.386 14.6166 81.7842 14.2376 81.126 13.9842C80.4737 13.7474 79.775 13.6629 79.0844 13.7372C79.7501 13.7967 80.3986 13.9803 80.9955 14.2785C81.5721 14.5848 82.0913 14.987 82.5305 15.4676C82.9758 15.9581 83.3942 16.4719 83.7842 17.0068L83.882 17.1331C84.2635 17.6258 84.6519 18.1275 85.1358 18.5739C85.4022 18.8224 85.6994 19.0364 86.0202 19.2107C86.1054 19.2538 86.1916 19.2944 86.276 19.3299C86.3604 19.3655 86.4397 19.3984 86.525 19.4289C86.6896 19.4923 86.8602 19.5448 87.0307 19.593C87.713 19.7858 88.4114 19.8551 89.0937 19.8923C89.1886 19.8973 89.2833 19.9019 89.3776 19.9065C89.6213 19.9184 89.8629 19.9302 90.1008 19.9473C90.4267 19.9665 90.75 20.0169 91.0661 20.0978C91.5411 20.2206 91.9592 20.5012 92.2507 20.8927C92.3498 21.0232 92.4388 21.1609 92.5168 21.3046ZM90.5198 17.7697C90.4855 17.7383 90.4506 17.7072 90.4159 17.6762C90.3935 17.6563 90.3712 17.6364 90.3492 17.6166C90.3662 17.632 90.3832 17.6475 90.4003 17.6632C90.4403 17.6998 90.4803 17.7365 90.5198 17.7697ZM89.667 23.998C87.4731 23.1152 85.1782 22.1917 85.5199 19.5998C86.2524 20.3753 87.4022 20.538 88.6528 20.7149C89.7872 20.8754 91.0046 21.0476 92.0685 21.6996C94.5791 23.2372 94.2124 26.2242 93.3596 27.3236C93.4365 25.5149 91.5906 24.7721 89.667 23.998ZM80.8281 22.7007C81.4072 22.6457 82.6412 22.3472 82.0895 21.3839C81.9708 21.188 81.7987 21.0292 81.5931 20.9258C81.3875 20.8224 81.1566 20.7787 80.9271 20.7995C80.6942 20.8244 80.4745 20.9196 80.298 21.0724C80.1215 21.2253 79.9966 21.4281 79.9404 21.6537C79.769 22.2838 79.9506 22.7853 80.8281 22.7007ZM80.6617 15.0793C80.2985 14.6632 79.7347 14.445 79.1821 14.3655C79.1614 14.502 79.1484 14.6395 79.1429 14.7774C79.1182 15.9131 79.5249 17.1606 80.3121 18.0275C80.5639 18.3077 80.8675 18.5373 81.2067 18.704C81.4028 18.7987 81.923 19.0338 82.1157 18.8224C82.1304 18.803 82.1396 18.7801 82.1425 18.7561C82.1453 18.732 82.1417 18.7076 82.132 18.6855C82.1 18.5949 82.0383 18.5127 81.9771 18.4311C81.9336 18.3733 81.8904 18.3158 81.8582 18.2558C81.8256 18.1953 81.7907 18.1362 81.7559 18.0773C81.6904 17.9665 81.6252 17.856 81.5751 17.7357C81.4429 17.4207 81.3741 17.0859 81.3055 16.7521C81.2918 16.6853 81.278 16.6182 81.2638 16.5517C81.1589 16.0367 81.025 15.4954 80.6617 15.0793ZM88.4234 24.1393C87.8599 25.6989 88.7688 27.0162 89.6724 28.3258C90.6831 29.7905 91.6872 31.2456 90.6159 33.0193C92.6976 32.1668 93.686 29.5916 92.8221 27.5484C92.2778 26.256 90.9658 25.5554 89.748 24.9052C89.2755 24.6529 88.8172 24.4081 88.4234 24.1393ZM82.3319 27.8622C81.9546 28.0149 81.5989 28.2153 81.2735 28.4585C82.0133 28.1924 82.7899 28.0404 83.5761 28.0077C83.7186 27.9993 83.862 27.9928 84.0067 27.9861C84.2566 27.9747 84.5108 27.9632 84.77 27.9418C85.1949 27.9132 85.614 27.8278 86.0159 27.688C86.4371 27.5419 86.8204 27.305 87.1382 26.9946C87.4593 26.674 87.6846 26.2715 87.7889 25.8317C87.8807 25.4162 87.8678 24.9847 87.7514 24.5754C87.6349 24.166 87.4184 23.7915 87.1212 23.4848C87.2646 23.8456 87.3528 24.2255 87.383 24.6122C87.4089 24.9721 87.3596 25.3334 87.238 25.6735C87.1193 25.9959 86.9252 26.2857 86.6717 26.5192C86.4099 26.7551 86.1067 26.9414 85.7771 27.0689C85.3192 27.2519 84.8013 27.3268 84.2619 27.4047C84.0158 27.4403 83.7653 27.4765 83.5138 27.5239C83.1095 27.5974 82.7135 27.7107 82.3319 27.8622ZM88.8716 34.3009L88.8354 34.3297C88.7401 34.4057 88.6432 34.4831 88.5388 34.5526C88.4058 34.6395 88.2664 34.7164 88.1218 34.7826C87.8207 34.9283 87.4897 35.0027 87.1547 34.9999C86.2474 34.9831 85.606 34.3133 85.2308 33.5563C85.1325 33.3579 85.0458 33.1534 84.9592 32.9489C84.8204 32.6215 84.6817 32.2942 84.4948 31.9918C84.0608 31.289 83.318 30.7232 82.4482 30.8281C82.0934 30.872 81.7608 31.0302 81.5638 31.3355C81.0453 32.133 81.7898 33.2502 82.739 33.092C82.8197 33.0798 82.8987 33.0583 82.9743 33.0278C83.0498 32.9959 83.1201 32.9535 83.1833 32.9018C83.3159 32.7922 83.4158 32.649 83.4724 32.4874C83.5347 32.3188 83.5486 32.1364 83.5125 31.9605C83.4735 31.7766 83.364 31.615 83.2072 31.5097C83.3896 31.5944 83.5317 31.746 83.6037 31.9325C83.6784 32.1246 83.6976 32.3333 83.6591 32.5356C83.6219 32.7462 83.5282 32.9431 83.3879 33.1056C83.3134 33.1891 83.2273 33.2618 83.1321 33.3212C83.0378 33.38 82.9367 33.4274 82.8311 33.4625C82.6169 33.5351 82.3889 33.5585 82.1642 33.531C81.8487 33.4864 81.5512 33.3584 81.3029 33.1605C81.257 33.1246 81.213 33.0869 81.1703 33.0479C81.0014 32.9033 80.848 32.7415 80.7127 32.5651C80.652 32.4989 80.5904 32.4335 80.526 32.3707C80.2219 32.0543 79.8632 31.7945 79.4668 31.6036C79.1934 31.4846 78.9073 31.3966 78.614 31.3414C78.4664 31.311 78.3173 31.289 78.168 31.2704C78.1518 31.2688 78.1207 31.2634 78.0819 31.2567C77.9573 31.2353 77.7543 31.2003 77.7186 31.2331C78.1799 30.812 78.6827 30.4381 79.2195 30.1168C79.7707 29.7925 80.3625 29.5414 80.9797 29.3701C81.6195 29.1915 82.2889 29.1405 82.9488 29.2204C83.2884 29.2609 83.6211 29.3462 83.938 29.4741C84.27 29.6056 84.5764 29.7934 84.8437 30.0289C85.1081 30.2759 85.3219 30.5715 85.473 30.8991C85.6095 31.2059 85.7113 31.5267 85.7766 31.8556C85.8116 32.0326 85.838 32.2271 85.8652 32.4284C85.9896 33.3458 86.1332 34.4044 87.1983 34.5889C87.2659 34.602 87.3342 34.6116 87.4029 34.6177L87.6153 34.6227C87.7613 34.6124 87.9063 34.5918 88.0493 34.561C88.3456 34.4919 88.6344 34.3942 88.9115 34.2693L88.8716 34.3009ZM80.7688 32.6268C80.7943 32.6557 80.8201 32.6843 80.8462 32.7127C80.8355 32.7009 80.8249 32.689 80.8142 32.6772C80.7991 32.6604 80.784 32.6436 80.7688 32.6268Z" fill="#FC72FF"/>
<path d="M2.57286 13.8544C6.48968 5.92322 14.2182 0.673459 22.9035 0.0443898C23.1536 0.0262814 29.3527 0.00885379 36.6792 0.00572891L50 0V0.780429V1.5609L36.4616 1.57439C21.8407 1.58898 22.806 1.57547 21.3805 1.78552C18.0018 2.28343 14.7767 3.52831 11.9461 5.42705C6.70486 8.94317 3.03928 14.5184 1.92282 20.6724C1.61035 22.3948 1.54272 23.3434 1.54272 26.004V28.1242H0.771364H0L0.000347668 25.9908C0.000545454 24.8175 0.0181576 23.6051 0.0395183 23.2966C0.271282 19.9485 1.11357 16.8092 2.57286 13.8544Z" fill="url(#paint0_linear_293_1734)"/>
<path d="M15.2098 5.32861C17.7472 4.0704 20.3433 3.36833 23.2596 3.15183C23.3574 3.14458 23.718 3.13549 24.0606 3.13164L24.6836 3.12463V3.89968V4.67475L23.8826 4.69971C18.5031 4.86749 13.2491 7.40296 9.62864 11.5783C7.08398 14.5131 5.40175 18.1481 4.84561 21.9134C4.64735 23.256 4.57061 25.1803 4.66535 26.4335C4.9943 30.7843 6.56045 34.6824 9.33685 38.0606C9.86432 38.7025 11.1528 40.0075 11.7862 40.5414C14.4488 42.786 17.529 44.2788 20.8369 44.9277C22.0882 45.1732 23.0537 45.2718 24.3869 45.2905C25.4989 45.3061 26.127 45.2739 27.1213 45.1506C30.1769 44.7715 33.086 43.6862 35.675 41.9597C40.6048 38.6719 43.8719 33.3554 44.5803 27.4679C44.7044 26.4358 44.7386 25.6206 44.7388 23.687L44.739 21.8741H45.5146H46.2902L46.2705 24.1477C46.247 26.8603 46.1806 27.6751 45.8459 29.3496C45.1314 32.9256 43.5789 36.1738 41.1948 39.0811C40.6552 39.7391 39.2545 41.1599 38.6098 41.7031C36.409 43.5577 34.0504 44.8952 31.4433 45.7672C27.505 47.0844 23.2958 47.2222 19.2248 46.1674C18.4359 45.963 17.0438 45.4804 16.2361 45.1312C9.97787 42.4257 5.31654 36.888 3.70099 30.2395C3.22912 28.2976 3.06076 26.7156 3.0968 24.5631C3.12524 22.8671 3.26736 21.6445 3.61665 20.0913C4.37661 16.712 5.94439 13.5543 8.22125 10.8168C8.75642 10.1733 10.0451 8.86815 10.6804 8.32608C12.1234 7.09503 13.5457 6.15379 15.2098 5.32861Z" fill="url(#paint1_linear_293_1734)"/>
<path d="M24.6836 7.79959V7.01839V6.23724L25.4451 6.26151C29.446 6.38904 33.4109 7.94628 36.59 10.6388C37.4171 11.3393 38.5602 12.5362 39.2281 13.4006C41.6826 16.5782 43.0134 20.2578 43.1802 24.3279L43.2076 24.9989H42.4365H41.6653L41.638 24.388C41.5632 22.715 41.2831 21.1231 40.8044 19.6505C39.279 14.9565 35.7949 11.1121 31.3094 9.17322C29.4574 8.37262 27.3374 7.88804 25.4055 7.82361L24.6836 7.79959Z" fill="url(#paint2_linear_293_1734)"/>
<path d="M10.838 18.0778C13.213 13.2019 17.978 9.89078 23.299 9.4191C23.8526 9.36997 25.4653 9.36866 25.9889 9.41686C28.9204 9.68669 31.5497 10.7004 33.8867 12.4617C37.0057 14.8126 39.1538 18.3041 39.85 22.1548C40.032 23.1617 40.0861 23.8129 40.0865 24.9993C40.0871 26.4732 39.9705 27.4601 39.6368 28.8053C38.5313 33.2628 35.5286 37.0061 31.428 39.0388C29.5128 39.9882 27.4887 40.5037 25.267 40.608L24.6836 40.6355V39.854V39.0726L25.2077 39.0453C28.8383 38.8556 31.9584 37.4656 34.4754 34.9164C35.8908 33.4828 36.8909 31.9407 37.6131 30.0778C38.2555 28.421 38.543 26.8535 38.5448 24.9993C38.546 23.7684 38.4469 22.8617 38.1925 21.7742C37.6856 19.6064 36.5814 17.4274 35.1576 15.7848C32.8663 13.1416 29.876 11.5152 26.4241 11.035C25.7934 10.9473 24.2298 10.9147 23.527 10.9747C20.3364 11.2472 17.3732 12.6102 15.0446 14.8766C13.4457 16.4329 12.1954 18.4372 11.4916 20.5724C11.08 21.8212 10.7996 23.4555 10.7991 24.6087L10.799 24.9993H10.0277H9.25636L9.25674 24.5686C9.25797 23.2303 9.56539 21.4519 10.0413 20.0297C10.3064 19.2374 10.4783 18.8164 10.838 18.0778Z" fill="url(#paint3_linear_293_1734)"/>
<path d="M44.7389 17.1872V16.406V15.6248H45.5102H46.2816V16.406V17.1872H45.5102H44.7389Z" fill="url(#paint4_linear_293_1734)"/>
<path d="M18.2754 19.2772C18.2754 18.1571 18.2885 17.2275 18.3045 17.2111C18.3205 17.1949 20.2475 17.1891 22.5865 17.1982C27.196 17.2162 27.1813 17.2155 28.1409 17.4462C30.8007 18.0852 32.2641 19.9264 32.0413 22.3533C31.9911 22.899 31.9305 23.1825 31.7674 23.635C31.3777 24.7166 30.553 25.5825 29.3224 26.202C29.0966 26.3156 28.9607 26.4048 28.9953 26.4164C30.2024 26.8201 30.5793 26.9868 31.1668 27.3765C32.1965 28.0599 32.8124 28.9475 33.034 30.0675C33.116 30.4819 33.1047 31.5391 33.0138 31.9705C32.5523 34.1589 30.8143 35.5616 27.9866 36.0281C27.4878 36.1104 27.3342 36.1134 22.8738 36.1269L18.2754 36.1408V35.5006V34.8605L22.7552 34.8441C27.544 34.8266 27.5526 34.8263 28.4073 34.6201C30.4792 34.1206 31.6852 32.7696 31.6852 30.9481C31.6852 29.1733 30.5238 27.9504 28.3905 27.4788C27.4338 27.2673 27.4946 27.2701 23.4474 27.2539L19.6598 27.2387V28.7232V30.2077H18.9673H18.2746L18.2849 28.0744L18.2951 25.941L22.5871 25.9185C26.7605 25.8967 26.8895 25.8937 27.2588 25.8118C27.4677 25.7653 27.8011 25.6723 27.9994 25.6049C29.3429 25.1491 30.2452 24.2171 30.5444 22.9764C30.666 22.4721 30.6662 21.5949 30.5449 21.142C30.1582 19.6982 28.86 18.7811 26.8774 18.5511C26.6618 18.5261 25.1791 18.5098 23.0914 18.5096L19.6598 18.5093V19.9115V21.3137H18.9676H18.2754V19.2772Z" fill="url(#paint5_linear_293_1734)"/>
<path d="M44.7389 20.312V19.5307V18.7495H45.5102H46.2816V19.5307V20.312H45.5102H44.7389Z" fill="url(#paint6_linear_293_1734)"/>
<path d="M47.8243 23.4366V22.6553V21.8741H48.5956H49.367V22.6553V23.4366H48.5956H47.8243Z" fill="url(#paint7_linear_293_1734)"/>
<path d="M18.2753 24.3583V23.6171V22.876H18.9676H19.6598V23.6171V24.3583H18.9676H18.2753Z" fill="url(#paint8_linear_293_1734)"/>
<path d="M47.3874 29.4962C47.6295 28.2609 47.8167 26.4529 47.8229 25.2893L47.8245 24.9987H48.6019H49.3795L49.3523 25.75C49.2769 27.833 49.0033 29.6929 48.4956 31.5743C45.9002 41.1892 37.8296 48.3852 28.1054 49.7548C26.4603 49.9865 27.3401 49.9726 13.4198 49.9869L0.633011 50V49.2179V48.4356L12.9649 48.4354C24.9027 48.4353 25.8995 48.4266 26.9977 48.3135C33.431 47.6519 39.259 44.3076 43.1922 39.0208C44.0833 37.8229 44.7297 36.7532 45.4317 35.315C46.3632 33.4063 46.982 31.5654 47.3874 29.4962Z" fill="url(#paint9_linear_293_1734)"/>
<path d="M9.29585 27.6837V26.9024V26.1213H10.0673H10.8386V26.9024V27.6837H10.0673H9.29585Z" fill="url(#paint10_linear_293_1734)"/>
<path d="M12.2626 27.6837V26.9024V26.1213H13.034H13.8054V26.9024V27.6837H13.034H12.2626Z" fill="url(#paint11_linear_293_1734)"/>
<path d="M15.3086 27.6837V26.9024V26.1213H16.08H16.8514V26.9024V27.6837H16.08H15.3086Z" fill="url(#paint12_linear_293_1734)"/>
<path d="M0 31.249V30.4677V29.6865H0.761703H1.52345V30.4677V31.249H0.761703H0Z" fill="url(#paint13_linear_293_1734)"/>
<path d="M18.2949 33.2724L18.2841 32.5212L18.2734 31.7701H18.9665H19.6596V32.5322V33.2944L18.9773 33.2834L18.2949 33.2724Z" fill="url(#paint14_linear_293_1734)"/>
<path d="M0 34.3735V33.5924V32.8111H0.761703H1.52345V33.5924V34.3735H0.761703H0Z" fill="url(#paint15_linear_293_1734)"/>
<path d="M0 37.6191V36.8377V36.0565H0.761703H1.52345V36.8377V37.6191H0.761703H0Z" fill="url(#paint16_linear_293_1734)"/>
<path fill-rule="evenodd" clip-rule="evenodd" d="M64.9928 20L66 21.0071L62.6342 24.3728C62.4568 23.9108 62.0891 23.5431 61.6271 23.3657L64.9928 20ZM60.3728 23.3657L57.0071 20L56 21.0071L59.3657 24.3729C59.5431 23.9108 59.9108 23.5431 60.3728 23.3657ZM59.3657 25.6271L56 28.9928L57.0071 29.9999L60.3729 26.6342C59.9108 26.4568 59.5431 26.0891 59.3657 25.6271ZM61.6271 26.6342L64.9928 29.9999L66 28.9928L62.6342 25.6271C62.4568 26.0891 62.0891 26.4568 61.6271 26.6342Z" fill="url(#paint17_linear_293_1734)"/>
<defs>
<linearGradient id="paint0_linear_293_1734" x1="2.4731" y1="14.9243" x2="48.9673" y2="14.9243" gradientUnits="userSpaceOnUse">
<stop stop-color="#29418B"/>
<stop offset="1" stop-color="#3874AE"/>
</linearGradient>
<linearGradient id="paint1_linear_293_1734" x1="5.22876" y1="26.3375" x2="45.3979" y2="26.3375" gradientUnits="userSpaceOnUse">
<stop stop-color="#29418B"/>
<stop offset="1" stop-color="#3874AE"/>
</linearGradient>
<linearGradient id="paint2_linear_293_1734" x1="25.5998" y1="16.1932" x2="42.8251" y2="16.1932" gradientUnits="userSpaceOnUse">
<stop stop-color="#29418B"/>
<stop offset="1" stop-color="#3874AE"/>
</linearGradient>
<linearGradient id="paint3_linear_293_1734" x1="10.7813" y1="25.9667" x2="39.4498" y2="25.9667" gradientUnits="userSpaceOnUse">
<stop stop-color="#29418B"/>
<stop offset="1" stop-color="#3874AE"/>
</linearGradient>
<linearGradient id="paint4_linear_293_1734" x1="44.8152" y1="16.4539" x2="46.2498" y2="16.4539" gradientUnits="userSpaceOnUse">
<stop stop-color="#29418B"/>
<stop offset="1" stop-color="#3874AE"/>
</linearGradient>
<linearGradient id="paint5_linear_293_1734" x1="19.0073" y1="27.2482" x2="32.7833" y2="27.2482" gradientUnits="userSpaceOnUse">
<stop stop-color="#29418B"/>
<stop offset="1" stop-color="#3874AE"/>
</linearGradient>
<linearGradient id="paint6_linear_293_1734" x1="44.8152" y1="19.5786" x2="46.2498" y2="19.5786" gradientUnits="userSpaceOnUse">
<stop stop-color="#29418B"/>
<stop offset="1" stop-color="#3874AE"/>
</linearGradient>
<linearGradient id="paint7_linear_293_1734" x1="47.9005" y1="22.7032" x2="49.3351" y2="22.7032" gradientUnits="userSpaceOnUse">
<stop stop-color="#29418B"/>
<stop offset="1" stop-color="#3874AE"/>
</linearGradient>
<linearGradient id="paint8_linear_293_1734" x1="18.3438" y1="23.6626" x2="19.6312" y2="23.6626" gradientUnits="userSpaceOnUse">
<stop stop-color="#29418B"/>
<stop offset="1" stop-color="#3874AE"/>
</linearGradient>
<linearGradient id="paint9_linear_293_1734" x1="3.0441" y1="38.2659" x2="48.3726" y2="38.2659" gradientUnits="userSpaceOnUse">
<stop stop-color="#29418B"/>
<stop offset="1" stop-color="#3874AE"/>
</linearGradient>
<linearGradient id="paint10_linear_293_1734" x1="9.37216" y1="26.9504" x2="10.8067" y2="26.9504" gradientUnits="userSpaceOnUse">
<stop stop-color="#29418B"/>
<stop offset="1" stop-color="#3874AE"/>
</linearGradient>
<linearGradient id="paint11_linear_293_1734" x1="12.3389" y1="26.9504" x2="13.7736" y2="26.9504" gradientUnits="userSpaceOnUse">
<stop stop-color="#29418B"/>
<stop offset="1" stop-color="#3874AE"/>
</linearGradient>
<linearGradient id="paint12_linear_293_1734" x1="15.3848" y1="26.9504" x2="16.8195" y2="26.9504" gradientUnits="userSpaceOnUse">
<stop stop-color="#29418B"/>
<stop offset="1" stop-color="#3874AE"/>
</linearGradient>
<linearGradient id="paint13_linear_293_1734" x1="0.0753527" y1="30.5157" x2="1.49198" y2="30.5157" gradientUnits="userSpaceOnUse">
<stop stop-color="#29418B"/>
<stop offset="1" stop-color="#3874AE"/>
</linearGradient>
<linearGradient id="paint14_linear_293_1734" x1="18.342" y1="32.579" x2="19.6311" y2="32.579" gradientUnits="userSpaceOnUse">
<stop stop-color="#29418B"/>
<stop offset="1" stop-color="#3874AE"/>
</linearGradient>
<linearGradient id="paint15_linear_293_1734" x1="0.0753527" y1="33.6402" x2="1.49198" y2="33.6402" gradientUnits="userSpaceOnUse">
<stop stop-color="#29418B"/>
<stop offset="1" stop-color="#3874AE"/>
</linearGradient>
<linearGradient id="paint16_linear_293_1734" x1="0.0753527" y1="36.8856" x2="1.49198" y2="36.8856" gradientUnits="userSpaceOnUse">
<stop stop-color="#29418B"/>
<stop offset="1" stop-color="#3874AE"/>
</linearGradient>
<linearGradient id="paint17_linear_293_1734" x1="67.6666" y1="25" x2="56" y2="25" gradientUnits="userSpaceOnUse">
<stop stop-color="#FC72FF"/>
<stop offset="1" stop-color="#2B4990"/>
</linearGradient>
</defs>
</svg>
