<svg width="90" height="40" viewBox="0 0 131 57" fill="none" xmlns="http://www.w3.org/2000/svg">
<path fill-rule="evenodd" clip-rule="evenodd" d="M99.6205 21.2403C99.513 21.6513 99.3254 22.0371 99.0682 22.3761C98.5894 22.9942 97.9557 23.4762 97.2307 23.774C96.5787 24.0535 95.888 24.2343 95.182 24.31C95.0369 24.3283 94.8865 24.3396 94.7407 24.3506L94.7169 24.3524C94.2698 24.3693 93.8399 24.5282 93.4901 24.8057C93.1402 25.0834 92.889 25.4652 92.773 25.895C92.7199 26.1089 92.6803 26.3259 92.6548 26.5448C92.6141 26.8749 92.5933 27.2128 92.5706 27.5783C92.5544 27.8405 92.5372 28.1171 92.5113 28.4151C92.3595 29.6292 92.0064 30.8099 91.4666 31.9091C91.3564 32.1401 91.2439 32.3642 91.1333 32.5842C90.5416 33.7634 90.0068 34.8286 90.1603 36.2552C90.2804 37.3545 90.8464 38.091 91.5985 38.8507C91.9557 39.2141 92.4292 39.5246 92.9208 39.847C94.2968 40.7491 95.8137 41.7437 95.3139 44.2496C94.9049 46.2801 91.5209 48.4109 86.7646 49.1551C87.226 49.0854 86.2097 47.3604 86.097 47.169L86.0901 47.1574C85.959 46.9531 85.8247 46.7518 85.6907 46.5509C85.3036 45.9705 84.918 45.3932 84.6172 44.753C83.8226 43.0813 83.4542 41.1472 83.7798 39.3153C84.0748 37.6575 85.1766 36.3331 86.2373 35.0579C86.4103 34.85 86.5821 34.6435 86.7492 34.4371C88.1679 32.6843 89.6565 30.3877 89.9858 28.1125C90.0137 27.9148 90.0385 27.6992 90.0646 27.4725C90.1113 27.0665 90.1621 26.6246 90.2417 26.1843C90.3599 25.4238 90.5995 24.6869 90.9511 24.0015C91.1911 23.5521 91.5071 23.147 91.8853 22.8041C92.0825 22.6221 92.2125 22.3794 92.2548 22.1151C92.2969 21.8509 92.2487 21.5802 92.1179 21.3463L84.5358 7.77938L95.4263 21.1497C95.5504 21.3046 95.7071 21.4306 95.8855 21.5184C96.0639 21.6062 96.2596 21.6539 96.4585 21.6582C96.6577 21.6625 96.8551 21.6231 97.0372 21.5428C97.2192 21.4626 97.3812 21.3435 97.5118 21.194C97.6498 21.034 97.728 20.8315 97.7332 20.6206C97.7386 20.4099 97.6706 20.2038 97.5408 20.0371C97.0345 19.3933 96.5075 18.7408 95.983 18.0912C95.7707 17.8285 95.5587 17.5657 95.3488 17.3048L92.6082 13.9305L87.1076 7.19316L81 0L87.8132 6.58966L93.6683 13.0299L96.5893 16.2577C96.8577 16.5584 97.126 16.8564 97.3942 17.1542C98.0949 17.9323 98.7957 18.7104 99.4964 19.5358L99.6554 19.7285L99.6903 20.0274C99.7375 20.4327 99.7139 20.8431 99.6205 21.2403ZM127.629 25.7746L127.641 25.792C127.639 24.3535 126.743 21.9799 124.931 19.6968L124.888 19.6409C124.33 18.9546 123.722 18.3101 123.068 17.7127C122.946 17.5951 122.815 17.4793 122.681 17.3637C121.844 16.6373 120.928 16.0048 119.952 15.4779L119.882 15.4431C116.814 13.781 112.821 12.925 107.898 13.889C107.237 13.0904 106.525 12.335 105.766 11.6273C104.605 10.5258 103.237 9.66183 101.741 9.08398C100.258 8.54408 98.6705 8.35134 97.1008 8.52092C98.6138 8.65648 100.088 9.07508 101.444 9.75499C102.755 10.4534 103.935 11.3704 104.933 12.4661C105.945 13.5846 106.896 14.7559 107.782 15.9754L108.005 16.2634C108.872 17.3869 109.754 18.5306 110.854 19.5485C111.46 20.1151 112.135 20.603 112.864 21.0004C113.058 21.0987 113.254 21.1912 113.446 21.2722C113.637 21.3533 113.818 21.4284 114.011 21.4979C114.386 21.6424 114.773 21.7621 115.161 21.872C116.711 22.3116 118.299 22.4696 119.849 22.5545C120.065 22.5658 120.28 22.5763 120.495 22.5868C121.048 22.614 121.598 22.6409 122.138 22.6798C122.879 22.7236 123.614 22.8385 124.332 23.023C125.412 23.303 126.362 23.9427 127.024 24.8355C127.25 25.1329 127.452 25.4468 127.629 25.7746ZM123.09 17.715C123.012 17.6434 122.933 17.5725 122.854 17.5018C122.803 17.4563 122.753 17.4111 122.703 17.3659C122.741 17.4009 122.78 17.4364 122.819 17.472C122.91 17.5556 123.001 17.6391 123.09 17.715ZM121.152 31.9155C116.166 29.9027 110.95 27.797 111.727 21.8875C113.392 23.6557 116.005 24.0266 118.847 24.43C121.426 24.7959 124.192 25.1885 126.61 26.6752C132.316 30.1807 131.483 36.9911 129.545 39.4979C129.719 35.3739 125.524 33.6804 121.152 31.9155ZM101.064 28.9577C102.38 28.8323 105.185 28.1517 103.931 25.9554C103.661 25.5086 103.27 25.1467 102.803 24.9108C102.335 24.6752 101.811 24.5754 101.289 24.623C100.759 24.6796 100.26 24.8967 99.859 25.2452C99.4579 25.5936 99.1741 26.0562 99.0464 26.5704C98.6568 28.007 99.0696 29.1504 101.064 28.9577ZM100.686 11.5808C99.8601 10.6321 98.5789 10.1346 97.323 9.95343C97.276 10.2646 97.2463 10.5781 97.2339 10.8925C97.1776 13.482 98.1021 16.3261 99.8911 18.3026C100.463 18.9416 101.154 19.4651 101.924 19.8452C102.37 20.0611 103.552 20.5971 103.99 20.1151C104.024 20.0709 104.045 20.0187 104.051 19.9639C104.058 19.909 104.049 19.8534 104.027 19.8028C103.955 19.5964 103.814 19.409 103.675 19.223C103.576 19.0912 103.478 18.9601 103.405 18.8231C103.331 18.6853 103.252 18.5506 103.172 18.4163C103.024 18.1637 102.875 17.9116 102.761 17.6373C102.461 16.9193 102.305 16.1558 102.149 15.3947C102.118 15.2426 102.086 15.0896 102.054 14.9378C101.816 13.7636 101.511 12.5295 100.686 11.5808ZM118.326 32.2376C117.045 35.7935 119.111 38.797 121.165 41.7827C123.462 45.1224 125.744 48.4401 123.309 52.4839C128.04 50.5404 130.286 44.6689 128.323 40.0104C127.086 37.0638 124.104 35.4663 121.336 33.9838C120.263 33.4086 119.221 32.8505 118.326 32.2376ZM104.482 40.7259C103.624 41.074 102.816 41.5309 102.076 42.0854C103.758 41.4787 105.522 41.1322 107.309 41.0576C107.633 41.0385 107.959 41.0235 108.288 41.0084C108.856 40.9824 109.434 40.956 110.023 40.9072C110.988 40.842 111.941 40.6473 112.854 40.3287C113.812 39.9956 114.683 39.4555 115.405 38.7476C116.135 38.0168 116.647 37.099 116.884 36.0962C117.092 35.1489 117.063 34.1651 116.799 33.2319C116.534 32.2985 116.042 31.4445 115.366 30.7454C115.692 31.568 115.893 32.4342 115.961 33.3158C116.02 34.1364 115.908 34.9603 115.632 35.7356C115.362 36.4706 114.921 37.1315 114.345 37.6639C113.75 38.2016 113.061 38.6263 112.312 38.9172C111.271 39.3344 110.094 39.505 108.868 39.6828C108.309 39.7638 107.739 39.8465 107.168 39.9546C106.249 40.122 105.349 40.3805 104.482 40.7259ZM119.345 55.4059L119.262 55.4717C119.046 55.645 118.825 55.8215 118.588 55.9799C118.286 56.1779 117.969 56.3534 117.641 56.5043C116.956 56.8365 116.204 57.0061 115.443 56.9998C113.38 56.9614 111.923 55.4343 111.07 53.7084C110.847 53.2561 110.65 52.7898 110.453 52.3234C110.137 51.5771 109.822 50.8307 109.397 50.1412C108.411 48.5389 106.723 47.2489 104.746 47.488C103.94 47.5883 103.184 47.9488 102.736 48.6449C101.557 50.4632 103.25 53.0105 105.407 52.6498C105.59 52.622 105.77 52.5728 105.942 52.5034C106.113 52.4307 106.273 52.334 106.417 52.216C106.718 51.9663 106.945 51.6398 107.074 51.2712C107.215 50.8868 107.247 50.4709 107.165 50.0699C107.076 49.6506 106.827 49.2823 106.471 49.0422C106.885 49.2352 107.208 49.581 107.372 50.0062C107.542 50.444 107.585 50.92 107.498 51.3811C107.413 51.8614 107.201 52.3103 106.882 52.6808C106.712 52.8712 106.517 53.0368 106.3 53.1724C106.086 53.3064 105.856 53.4145 105.616 53.4945C105.129 53.6599 104.611 53.7134 104.1 53.6507C103.383 53.549 102.707 53.2572 102.143 52.806C102.039 52.7241 101.939 52.6382 101.842 52.5491C101.458 52.2196 101.109 51.8507 100.802 51.4485C100.664 51.2974 100.524 51.1483 100.377 51.0051C99.6862 50.2837 98.8709 49.6914 97.9699 49.2563C97.3487 48.9848 96.6985 48.7842 96.0319 48.6585C95.6965 48.589 95.3574 48.5389 95.0182 48.4965C94.9813 48.4928 94.9106 48.4805 94.8225 48.4654C94.5394 48.4164 94.0781 48.3368 93.9968 48.4116C95.0452 47.4515 96.1878 46.5988 97.4079 45.8663C98.6606 45.1269 100.006 44.5544 101.408 44.1638C102.863 43.7566 104.384 43.6404 105.884 43.8225C106.656 43.9147 107.412 44.1093 108.132 44.4008C108.886 44.7008 109.583 45.1289 110.19 45.6659C110.791 46.2292 111.277 46.903 111.62 47.6499C111.931 48.3494 112.162 49.0808 112.31 49.8307C112.39 50.2344 112.45 50.6777 112.512 51.1368C112.794 53.2285 113.121 55.6421 115.542 56.0627C115.695 56.0925 115.851 56.1144 116.007 56.1284L116.489 56.1398C116.821 56.1163 117.151 56.0693 117.476 55.9991C118.149 55.8416 118.805 55.6188 119.435 55.334L119.345 55.4059ZM100.929 51.5892C100.987 51.6551 101.046 51.7203 101.105 51.785C101.081 51.7581 101.057 51.731 101.032 51.7041C100.998 51.6658 100.964 51.6275 100.929 51.5892Z" fill="#FC72FF"/>
<path d="M2.57286 17.8544C6.48968 9.92323 14.2182 4.67346 22.9035 4.04439C23.1536 4.02628 29.3527 4.00885 36.6792 4.00573L50 4V4.78043V5.5609L36.4616 5.57439C21.8407 5.58898 22.806 5.57547 21.3805 5.78552C18.0018 6.28343 14.7767 7.52831 11.9461 9.42705C6.70486 12.9432 3.03928 18.5184 1.92282 24.6724C1.61035 26.3948 1.54272 27.3434 1.54272 30.004V32.1242H0.771364H0L0.000347668 29.9908C0.000545454 28.8175 0.0181576 27.6051 0.0395183 27.2966C0.271282 23.9485 1.11357 20.8092 2.57286 17.8544Z" fill="url(#paint0_linear_161_38)"/>
<path d="M15.2097 9.32864C17.7471 8.07043 20.3433 7.36836 23.2595 7.15186C23.3574 7.14461 23.7179 7.13552 24.0605 7.13167L24.6835 7.12466V7.89972V8.67478L23.8826 8.69974C18.5031 8.86752 13.249 11.403 9.62858 15.5784C7.08392 18.5131 5.40169 22.1481 4.84555 25.9135C4.64729 27.256 4.57055 29.1803 4.66529 30.4336C4.99424 34.7844 6.56039 38.6824 9.33679 42.0606C9.86426 42.7025 11.1527 44.0075 11.7861 44.5415C14.4488 46.7861 17.529 48.2788 20.8369 48.9277C22.0882 49.1732 23.0537 49.2718 24.3869 49.2906C25.4989 49.3061 26.1269 49.2739 27.1212 49.1506C30.1769 48.7715 33.0859 47.6863 35.675 45.9597C40.6047 42.672 43.8718 37.3555 44.5802 31.468C44.7044 30.4358 44.7386 29.6207 44.7388 27.6871L44.739 25.8741H45.5145H46.2901L46.2704 28.1477C46.247 30.8603 46.1805 31.6751 45.8458 33.3496C45.1313 36.9256 43.5788 40.1739 41.1947 43.0812C40.6551 43.7392 39.2544 45.1599 38.6098 45.7031C36.4089 47.5577 34.0503 48.8953 31.4432 49.7673C27.5049 51.0844 23.2957 51.2223 19.2247 50.1674C18.4358 49.963 17.0437 49.4804 16.236 49.1313C9.97781 46.4257 5.31647 40.888 3.70093 34.2395C3.22906 32.2976 3.0607 30.7156 3.09674 28.5632C3.12518 26.8672 3.2673 25.6445 3.61659 24.0913C4.37655 20.712 5.94432 17.5543 8.22119 14.8168C8.75636 14.1733 10.0451 12.8682 10.6804 12.3261C12.1234 11.0951 13.5456 10.1538 15.2097 9.32864Z" fill="url(#paint1_linear_161_38)"/>
<path d="M24.6836 11.7996V11.0184V10.2372L25.4451 10.2615C29.446 10.389 33.4109 11.9463 36.59 14.6388C37.4171 15.3393 38.5602 16.5361 39.2281 17.4006C41.6826 20.5782 43.0134 24.2578 43.1802 28.3279L43.2076 28.9989H42.4365H41.6653L41.638 28.3879C41.5632 26.715 41.2831 25.1231 40.8044 23.6505C39.279 18.9565 35.7949 15.1121 31.3094 13.1732C29.4574 12.3726 27.3374 11.888 25.4055 11.8236L24.6836 11.7996Z" fill="url(#paint2_linear_161_38)"/>
<path d="M10.838 22.0778C13.2129 17.2019 17.978 13.8908 23.299 13.4191C23.8526 13.37 25.4653 13.3687 25.9889 13.4169C28.9204 13.6867 31.5497 14.7004 33.8867 16.4617C37.0057 18.8126 39.1538 22.3041 39.85 26.1548C40.032 27.1617 40.0861 27.8129 40.0865 28.9993C40.0871 30.4732 39.9705 31.4601 39.6368 32.8053C38.5312 37.2628 35.5286 41.0061 31.428 43.0388C29.5128 43.9882 27.4887 44.5037 25.267 44.608L24.6836 44.6355V43.854V43.0726L25.2077 43.0453C28.8383 42.8556 31.9584 41.4656 34.4754 38.9164C35.8908 37.4828 36.8909 35.9407 37.6131 34.0778C38.2554 32.421 38.543 30.8535 38.5448 28.9993C38.546 27.7684 38.4469 26.8617 38.1925 25.7742C37.6855 23.6064 36.5813 21.4274 35.1575 19.7848C32.8663 17.1416 29.876 15.5152 26.424 15.035C25.7934 14.9473 24.2298 14.9147 23.527 14.9747C20.3364 15.2472 17.3732 16.6102 15.0446 18.8766C13.4457 20.4329 12.1954 22.4372 11.4916 24.5724C11.08 25.8212 10.7996 27.4555 10.7991 28.6087L10.799 28.9993H10.0277H9.25635L9.25672 28.5686C9.25795 27.2303 9.56538 25.4519 10.0412 24.0297C10.3064 23.2374 10.4783 22.8164 10.838 22.0778Z" fill="url(#paint3_linear_161_38)"/>
<path d="M44.7389 21.1872V20.406V19.6248H45.5102H46.2816V20.406V21.1872H45.5102H44.7389Z" fill="url(#paint4_linear_161_38)"/>
<path d="M18.2754 23.2772C18.2754 22.1571 18.2885 21.2275 18.3045 21.2111C18.3206 21.1949 20.2475 21.1891 22.5866 21.1982C27.196 21.2162 27.1814 21.2155 28.1409 21.4462C30.8007 22.0852 32.2642 23.9264 32.0413 26.3533C31.9912 26.899 31.9305 27.1825 31.7675 27.635C31.3777 28.7166 30.5531 29.5825 29.3225 30.202C29.0966 30.3156 28.9607 30.4048 28.9953 30.4164C30.2024 30.8201 30.5793 30.9868 31.1668 31.3765C32.1965 32.0599 32.8124 32.9475 33.034 34.0675C33.116 34.4819 33.1047 35.5391 33.0138 35.9705C32.5523 38.1589 30.8144 39.5616 27.9866 40.0281C27.4878 40.1104 27.3342 40.1134 22.8738 40.1269L18.2754 40.1408V39.5006V38.8605L22.7552 38.8441C27.544 38.8266 27.5526 38.8263 28.4073 38.6201C30.4793 38.1206 31.6853 36.7696 31.6853 34.9481C31.6853 33.1733 30.5238 31.9504 28.3905 31.4788C27.4338 31.2673 27.4947 31.2701 23.4475 31.2539L19.6599 31.2387V32.7232V34.2077H18.9673H18.2747L18.2849 32.0744L18.2951 29.941L22.5871 29.9185C26.7605 29.8967 26.8895 29.8937 27.2588 29.8118C27.4678 29.7653 27.8011 29.6723 27.9995 29.6049C29.343 29.1491 30.2452 28.2171 30.5445 26.9764C30.6661 26.4721 30.6663 25.5949 30.545 25.142C30.1583 23.6982 28.86 22.7811 26.8775 22.5511C26.6618 22.5261 25.1792 22.5098 23.0915 22.5096L19.6599 22.5093V23.9115V25.3137H18.9676H18.2754V23.2772Z" fill="url(#paint5_linear_161_38)"/>
<path d="M44.7389 24.312V23.5307V22.7495H45.5102H46.2816V23.5307V24.312H45.5102H44.7389Z" fill="url(#paint6_linear_161_38)"/>
<path d="M47.8242 27.4366V26.6553V25.8741H48.5955H49.3669V26.6553V27.4366H48.5955H47.8242Z" fill="url(#paint7_linear_161_38)"/>
<path d="M18.2753 28.3583V27.6171V26.876H18.9675H19.6598V27.6171V28.3583H18.9675H18.2753Z" fill="url(#paint8_linear_161_38)"/>
<path d="M47.3875 33.4962C47.6295 32.2608 47.8167 30.4529 47.8229 29.2893L47.8245 28.9987H48.602H49.3795L49.3523 29.7499C49.2769 31.833 49.0034 33.6929 48.4956 35.5743C45.9003 45.1892 37.8296 52.3852 28.1054 53.7548C26.4603 53.9865 27.3401 53.9726 13.4199 53.9869L0.633057 54V53.2178V52.4356L12.9649 52.4354C24.9028 52.4353 25.8995 52.4266 26.9978 52.3135C33.4311 51.6519 39.2591 48.3076 43.1922 43.0208C44.0833 41.8229 44.7298 40.7532 45.4317 39.315C46.3632 37.4063 46.9821 35.5653 47.3875 33.4962Z" fill="url(#paint9_linear_161_38)"/>
<path d="M9.2959 31.6837V30.9025V30.1213H10.0673H10.8386V30.9025V31.6837H10.0673H9.2959Z" fill="url(#paint10_linear_161_38)"/>
<path d="M12.2626 31.6837V30.9025V30.1213H13.034H13.8054V30.9025V31.6837H13.034H12.2626Z" fill="url(#paint11_linear_161_38)"/>
<path d="M15.3086 31.6837V30.9025V30.1213H16.08H16.8514V30.9025V31.6837H16.08H15.3086Z" fill="url(#paint12_linear_161_38)"/>
<path d="M0 35.249V34.4677V33.6865H0.761703H1.52345V34.4677V35.249H0.761703H0Z" fill="url(#paint13_linear_161_38)"/>
<path d="M18.2949 37.2725L18.2841 36.5212L18.2734 35.7701H18.9665H19.6597V36.5322V37.2944L18.9773 37.2834L18.2949 37.2725Z" fill="url(#paint14_linear_161_38)"/>
<path d="M0 38.3735V37.5923V36.8111H0.761703H1.52345V37.5923V38.3735H0.761703H0Z" fill="url(#paint15_linear_161_38)"/>
<path d="M0 41.6191V40.8377V40.0565H0.761703H1.52345V40.8377V41.6191H0.761703H0Z" fill="url(#paint16_linear_161_38)"/>
<path fill-rule="evenodd" clip-rule="evenodd" d="M73.1871 23L75.0001 24.8129L68.9417 30.8712C68.6224 30.0395 67.9605 29.3776 67.1288 29.0583L73.1871 23ZM64.8712 29.0583L58.8129 23L57 24.8129L63.0583 30.8712C63.3776 30.0395 64.0395 29.3776 64.8712 29.0583ZM63.0583 33.1288L57 39.1871L58.8129 41L64.8712 34.9417C64.0395 34.6224 63.3776 33.9605 63.0583 33.1288ZM67.1288 34.9417L73.1871 41L75.0001 39.1871L68.9417 33.1288C68.6224 33.9605 67.9605 34.6224 67.1288 34.9417Z" fill="url(#paint17_linear_161_38)"/>
<defs>
<linearGradient id="paint0_linear_161_38" x1="2.4731" y1="18.9243" x2="48.9673" y2="18.9243" gradientUnits="userSpaceOnUse">
<stop stop-color="#29418B"/>
<stop offset="1" stop-color="#3874AE"/>
</linearGradient>
<linearGradient id="paint1_linear_161_38" x1="5.2287" y1="30.3376" x2="45.3978" y2="30.3376" gradientUnits="userSpaceOnUse">
<stop stop-color="#29418B"/>
<stop offset="1" stop-color="#3874AE"/>
</linearGradient>
<linearGradient id="paint2_linear_161_38" x1="25.5998" y1="20.1932" x2="42.8251" y2="20.1932" gradientUnits="userSpaceOnUse">
<stop stop-color="#29418B"/>
<stop offset="1" stop-color="#3874AE"/>
</linearGradient>
<linearGradient id="paint3_linear_161_38" x1="10.7813" y1="29.9667" x2="39.4497" y2="29.9667" gradientUnits="userSpaceOnUse">
<stop stop-color="#29418B"/>
<stop offset="1" stop-color="#3874AE"/>
</linearGradient>
<linearGradient id="paint4_linear_161_38" x1="44.8152" y1="20.4539" x2="46.2498" y2="20.4539" gradientUnits="userSpaceOnUse">
<stop stop-color="#29418B"/>
<stop offset="1" stop-color="#3874AE"/>
</linearGradient>
<linearGradient id="paint5_linear_161_38" x1="19.0074" y1="31.2482" x2="32.7833" y2="31.2482" gradientUnits="userSpaceOnUse">
<stop stop-color="#29418B"/>
<stop offset="1" stop-color="#3874AE"/>
</linearGradient>
<linearGradient id="paint6_linear_161_38" x1="44.8152" y1="23.5786" x2="46.2498" y2="23.5786" gradientUnits="userSpaceOnUse">
<stop stop-color="#29418B"/>
<stop offset="1" stop-color="#3874AE"/>
</linearGradient>
<linearGradient id="paint7_linear_161_38" x1="47.9005" y1="26.7032" x2="49.3351" y2="26.7032" gradientUnits="userSpaceOnUse">
<stop stop-color="#29418B"/>
<stop offset="1" stop-color="#3874AE"/>
</linearGradient>
<linearGradient id="paint8_linear_161_38" x1="18.3437" y1="27.6626" x2="19.6312" y2="27.6626" gradientUnits="userSpaceOnUse">
<stop stop-color="#29418B"/>
<stop offset="1" stop-color="#3874AE"/>
</linearGradient>
<linearGradient id="paint9_linear_161_38" x1="3.04415" y1="42.2659" x2="48.3727" y2="42.2659" gradientUnits="userSpaceOnUse">
<stop stop-color="#29418B"/>
<stop offset="1" stop-color="#3874AE"/>
</linearGradient>
<linearGradient id="paint10_linear_161_38" x1="9.37221" y1="30.9504" x2="10.8068" y2="30.9504" gradientUnits="userSpaceOnUse">
<stop stop-color="#29418B"/>
<stop offset="1" stop-color="#3874AE"/>
</linearGradient>
<linearGradient id="paint11_linear_161_38" x1="12.3388" y1="30.9504" x2="13.7735" y2="30.9504" gradientUnits="userSpaceOnUse">
<stop stop-color="#29418B"/>
<stop offset="1" stop-color="#3874AE"/>
</linearGradient>
<linearGradient id="paint12_linear_161_38" x1="15.3849" y1="30.9504" x2="16.8196" y2="30.9504" gradientUnits="userSpaceOnUse">
<stop stop-color="#29418B"/>
<stop offset="1" stop-color="#3874AE"/>
</linearGradient>
<linearGradient id="paint13_linear_161_38" x1="0.0753527" y1="34.5157" x2="1.49198" y2="34.5157" gradientUnits="userSpaceOnUse">
<stop stop-color="#29418B"/>
<stop offset="1" stop-color="#3874AE"/>
</linearGradient>
<linearGradient id="paint14_linear_161_38" x1="18.342" y1="36.579" x2="19.6311" y2="36.579" gradientUnits="userSpaceOnUse">
<stop stop-color="#29418B"/>
<stop offset="1" stop-color="#3874AE"/>
</linearGradient>
<linearGradient id="paint15_linear_161_38" x1="0.0753527" y1="37.6402" x2="1.49198" y2="37.6402" gradientUnits="userSpaceOnUse">
<stop stop-color="#29418B"/>
<stop offset="1" stop-color="#3874AE"/>
</linearGradient>
<linearGradient id="paint16_linear_161_38" x1="0.0753527" y1="40.8856" x2="1.49198" y2="40.8856" gradientUnits="userSpaceOnUse">
<stop stop-color="#29418B"/>
<stop offset="1" stop-color="#3874AE"/>
</linearGradient>
<linearGradient id="paint17_linear_161_38" x1="78" y1="32" x2="57" y2="32" gradientUnits="userSpaceOnUse">
<stop stop-color="#FC72FF"/>
<stop offset="1" stop-color="#2B4990"/>
</linearGradient>
</defs>
</svg>